<?xml version="1.0" encoding="UTF-8"?>
<svg height="124" viewBox="0 0 100 124" width="100" xmlns="http://www.w3.org/2000/svg"><g fill="none" fill-rule="evenodd" transform="translate(2 2)"><path d="m77.9718992 0h-77.9718992v119.689922h95.8323643v-101.8294569z" fill="#fff" stroke="#24272a" stroke-linecap="round" stroke-linejoin="round" stroke-width="3"/><path d="m95.8323643 17.8604651h-17.8604651v-17.8604651z" fill="#fff"/><path d="m95.8323643 17.8604651h-17.8604651v-17.8604651z" stroke="#24272a" stroke-linecap="round" stroke-linejoin="round" stroke-width="3"/><g fill="#24272a"><path d="m77.9718992 17.8604651h17.8604651v17.8604651z" fill-opacity=".1"/><path d="m71.1514286 41.2500952.0085714-.0102857c-.012-.0205714-.0308571-.036-.0445714-.0565714-.2262857-.3497143-.4868572-.6702857-.7834286-.96-.0565714-.0548571-.1234286-.096-.1817143-.1491429-.2485714-.2228571-.516-.4234285-.804-.5982857-.1131428-.0668571-.228-.1251428-.3445714-.1868571-.2674286-.1371429-.5451429-.2485714-.8365714-.3411429-.1217143-.0377143-.2382858-.0822857-.3651429-.1131428-.4148571-.0994286-.8417143-.168-1.2874286-.168h-.0154285c-.42 0-.8331429.0548571-1.236.1491428-.1251429.0291429-.2417143.0822857-.3634286.12-.2725714.084-.5382857.1714286-.7937143.2948572-.0325714.0154285-.072.0205714-.1045714.0377143v.024c-.612.3154285-1.1777143.7268571-1.6405715 1.2565714l-9.2742857 15.084 10.9148572-6.0857143v26.0708571l-29.148-34.9765714c-1.044-1.2514286-2.5868572-1.9748571-4.2154286-1.9748571h-1.1502857c-3.0308572 0-5.4857143 2.4565714-5.4857143 5.4857143v37.0285714c0 .9531428.264 1.836.6908571 2.616l-.0171428.0205714c.0565714.1045714.1268571.1988572.192.2982857.0411428.0668572.0805714.1354286.1268571.2005715.1748572.252.3685715.4885714.5828572.7062857.0411428.0428571.0891428.0805714.132.12.1885714.18.3874285.3445714.6.4954285.0668571.048.132.096.2005714.1405715.2605714.1697143.5331429.3222857.8211429.4457143.0342857.0154285.0702857.024.1045714.0377142.2605714.1045715.5348571.1885715.816.2537143.0822857.0188572.1645714.036.2502857.0514286.3205714.0582857.648.0994286.9857143.0994286.4234286 0 .8382857-.0548572 1.2411428-.1491429.1285715-.0308571.2468572-.0857143.372-.1251428.2708572-.0822858.5382858-.1714286.7937143-.2965715.0342857-.0171428.0737143-.0222857.1062857-.0394285v-.024c.6154286-.3188572 1.1794286-.7337143 1.6422858-1.2702858l10.5754285-14.7411428-12.2177143 5.3862857h.0017143-.0017143v-25.692l29.1497143 34.9782857c1.0405715 1.2497143 2.5851429 1.9731429 4.2137143 1.9731429h1.1502857c3.0308572 0 5.4874286-2.4548572 5.4874286-5.4857143v-37.0285714c0-1.0697143-.3188571-2.0588572-.8485714-2.9022858"/></g></g></svg>