<?xml version="1.0" encoding="UTF-8"?>
<svg width="226px" height="322px" viewBox="0 0 226 322" version="1.1" xmlns="http://www.w3.org/2000/svg" xmlns:xlink="http://www.w3.org/1999/xlink">
    <title>deal_with_kat</title>
    <defs>
        <path d="M8.68,0.47 C8.68,0.47 -4,1.91 2.91,14.88 C2.91,14.88 6.4,22.56 16.58,22.94 C16.58,22.94 19.63,14 8.68,0.47 L8.68,0.47 Z" id="path-1"></path>
    </defs>
    <g id="Page-1" stroke="none" stroke-width="1" fill="none" fill-rule="evenodd">
        <g id="Desktop-HD-Copy" transform="translate(-80.000000, -1405.000000)">
            <g id="deal_with_kat" transform="translate(80.086239, 1405.000000)">
                <path d="M165.913761,303.21 C156.033761,297.97 129.373761,294.21 98.0137607,294.21 C58.2537607,294.21 8.01376067,300.21 8.01376067,307.71 C8.01376067,315.21 58.2537607,321.21 98.0137607,321.21 C110.624727,321.255157 123.228163,320.587425 135.763761,319.21 C144.203761,319.86 153.863761,320.21 164.123761,320.21 C197.193761,320.21 224.013761,316.4 224.013761,311.7 C224.013761,307 198.123761,303.35 165.913761,303.21 L165.913761,303.21 Z" id="Path" fill="#000000" fill-rule="nonzero" opacity="0.05"></path>
                <path d="M91.6337607,98.93 C91.0715072,104.251621 89.9554634,109.500043 88.3037607,114.59 L86.9137607,118.74 C86.9137607,118.74 84.0037607,118.44 81.2337607,124.43 C78.4637607,130.42 69.7137607,158.07 59.2337607,158.53 C59.2337607,158.53 42.8037607,146.53 38.3437607,143.93 C33.8837607,141.33 28.8237607,134.87 30.0537607,130.11 C30.0537607,130.11 32.7437607,125.96 34.4337607,125.27 C36.1237607,124.58 33.1237607,122.43 32.0537607,122.35 C30.9837607,122.27 25.7537607,121.2 24.2937607,128.5 C21.2609127,124.045487 19.1463839,119.03113 18.0737607,113.75 C16.4537607,105.3 14.5537607,106.08 13.2337607,106.99 C11.9137607,107.9 9.11376067,110.45 11.9137607,119.43 C11.9137607,119.43 4.54376067,108.22 2.91376067,112.67 C1.28376067,117.12 3.14376067,124.04 10.7437607,129.5 L2.22376067,125.5 C2.22376067,125.5 -2.46623933,127.88 5.52376067,133.18 L12.9137607,134.33 C12.9137607,134.33 16.2937607,140.02 20.2837607,140.4 C20.2837607,140.4 41.4837607,159.53 49.0137607,180.19 C56.5437607,200.85 67.4837607,197.01 67.4837607,197.01 C67.4837607,197.01 64.6437607,214.44 65.5637607,224.58 C65.5637607,224.58 34.6937607,222.58 40.9937607,249.46 C47.2937607,276.34 63.5737607,289.4 65.7237607,299.08 C65.7237607,299.08 66.3337607,301.54 60.3437607,301.85 C54.3537607,302.16 37.4537607,297.85 37.6137607,304.61 C37.3675576,306.00042 38.2424294,307.343348 39.6137607,307.68 C39.6137607,307.68 44.0737607,312.44 60.0437607,311.52 C76.0137607,310.6 77.7137607,309.83 77.7137607,309.83 C77.7137607,309.83 81.8637607,315.36 100.443761,315.21 C119.023761,315.06 128.553761,311.98 125.023761,306.61 C125.023761,306.61 134.393761,300.31 136.543761,297.08 C138.693761,293.85 163.733761,271.28 154.973761,204.46 C161.499369,199.672788 163.91071,191.04729 160.813761,183.57 C155.743761,170.05 140.233761,143.01 136.393761,129.96 C132.553761,116.91 122.563761,99.69 115.803761,104.96 L109.353761,93.13 C109.353761,93.13 108.223761,89.1 91.6337607,98.93 L91.6337607,98.93 Z" id="Path" fill="#F2F1ED" fill-rule="nonzero"></path>
                <path d="M143.373761,281.95 C143.373761,281.95 189.223761,305.95 197.973761,285.18 C206.723761,264.41 154.433761,254.53 154.433761,254.53 C154.433761,254.53 114.563761,240.02 156.963761,212.14 C156.963761,212.14 179.313761,197.62 191.963761,197.62 C204.613761,197.62 170.303761,210.06 170.303761,210.06 C170.303761,210.06 152.583761,220.21 150.053761,229.42 C147.523761,238.63 148.443761,243.47 168.943761,247.85 C189.443761,252.23 221.943761,268.13 213.643761,291.85 C205.343761,315.57 171.713761,310.98 158.343761,307.29 C144.973761,303.6 132.083761,294.39 132.083761,294.39 L143.373761,281.95 Z" id="Path" fill="#DCD8CD" fill-rule="nonzero"></path>
                <path d="M96.9737607,129.57 C96.3370318,131.319208 95.7962279,133.101858 95.3537607,134.91 C94.8937607,136.71 94.5337607,138.53 94.2137607,140.36 C93.5735476,144.000489 93.1262566,147.67228 92.8737607,151.36 L91.5037607,150.76 L94.8637607,146.98 C95.1799902,146.62392 95.72374,146.588265 96.0837607,146.9 C96.3407955,147.135164 96.4349009,147.499823 96.3237607,147.83 C95.2237607,150.95 94.1837607,154.11 93.2037607,157.27 C92.1821583,160.397314 91.3210354,163.574791 90.6237607,166.79 C90.4665827,167.558889 90.3596894,168.337206 90.3037607,169.12 C90.2777307,169.414207 90.2945731,169.710635 90.3537607,170 C90.2770174,169.907773 90.1712521,169.844314 90.0537607,169.82 C89.7837607,169.82 89.8537607,169.82 89.9437607,169.82 C90.5498715,169.340909 91.1244011,168.823164 91.6637607,168.27 C91.9091464,168.056198 92.1900485,167.88698 92.4937607,167.77 C92.6410663,167.716003 92.7968739,167.688906 92.9537607,167.69 C93.2067368,167.68272 93.4554459,167.756282 93.6637607,167.9 C93.9609803,168.109073 94.1597105,168.430654 94.2137607,168.79 C94.2788566,169.332124 94.241543,169.881652 94.1037607,170.41 C93.6997519,172.067913 93.1988926,173.700714 92.6037607,175.3 C92.0437607,176.88 91.4537607,178.44 90.8637607,180 C89.7037607,183.11 88.5237607,186.23 87.6337607,189.35 C87.4128678,190.093778 87.265495,190.857437 87.1937607,191.63 C87.1775782,191.77622 87.1775782,191.92378 87.1937607,192.07 C87.1937607,192.19 87.1937607,192.12 87.0737607,192.07 C86.9537607,192.02 87.0137607,192.07 87.1337607,192.02 C87.362741,191.912358 87.6047822,191.835039 87.8537607,191.79 C88.1881657,191.712638 88.5385428,191.744172 88.8537607,191.88 C89.2014669,192.047671 89.4729423,192.340579 89.6137607,192.7 C89.7877803,193.186776 89.8592768,193.704275 89.8237607,194.22 C89.7650544,195.084734 89.641372,195.943825 89.4537607,196.79 C88.7537607,200.1 87.7937607,203.27 87.0837607,206.51 C86.711686,208.122362 86.4345431,209.755169 86.2537607,211.4 C86.0453184,213.045432 86.0722555,214.712163 86.3337607,216.35 C85.9148754,214.718464 85.7562552,213.031016 85.8637607,211.35 C85.9416669,209.674786 86.1152835,208.005395 86.3837607,206.35 C86.8837607,203.04 87.6837607,199.78 88.2337607,196.54 C88.36737,195.756565 88.4442366,194.964506 88.4637607,194.17 C88.4789191,193.851324 88.4348403,193.532601 88.3337607,193.23 C88.3337607,193.13 88.2637607,193.14 88.2737607,193.15 C88.2142547,193.139111 88.1532666,193.139111 88.0937607,193.15 C87.9380697,193.190275 87.7871921,193.247273 87.6437607,193.32 C87.2813487,193.494986 86.8645852,193.520136 86.4837607,193.39 C86.2384502,193.291104 86.0315528,193.115767 85.8937607,192.89 C85.7994757,192.732168 85.7319,192.55985 85.6937607,192.38 C85.6353185,192.114088 85.608466,191.842207 85.6137607,191.57 C85.659594,190.682242 85.7935864,189.801242 86.0137607,188.94 C86.8237607,185.62 88.0137607,182.5 89.0837607,179.35 L90.7337607,174.65 C91.2862554,173.127147 91.7536435,171.574751 92.1337607,170 C92.2024571,169.718559 92.2360459,169.429695 92.2337607,169.14 C92.2337607,169.14 92.2337607,169.26 92.4937607,169.5 C92.6167824,169.586064 92.7636308,169.631517 92.9137607,169.63 C92.9669454,169.63563 93.0205759,169.63563 93.0737607,169.63 C92.9934817,169.673063 92.9194637,169.726895 92.8537607,169.79 C92.2448543,170.439216 91.5751255,171.028578 90.8537607,171.55 C90.4717678,171.795769 90.0099098,171.885277 89.5637607,171.8 C89.238262,171.733459 88.9473618,171.552533 88.7437607,171.29 C88.6061134,171.113366 88.5011307,170.91356 88.4337607,170.7 C88.2827068,170.181013 88.2318012,169.63802 88.2837607,169.1 C88.3425239,168.222062 88.4661951,167.349679 88.6537607,166.49 C90.2086073,159.965827 92.2134032,153.557162 94.6537607,147.31 L96.0937607,148.19 L92.6337607,151.88 C92.3260914,152.183726 91.8314299,152.183726 91.5237607,151.88 C91.3423026,151.706682 91.2501902,151.459821 91.2737607,151.21 C91.4937607,149.35 91.7337607,147.48 92.0637607,145.63 C92.3937607,143.78 92.7737607,141.94 93.2137607,140.12 C93.6537607,138.3 94.2137607,136.5 94.8137607,134.73 C95.3991779,132.956707 96.1213466,131.231527 96.9737607,129.57 L96.9737607,129.57 Z" id="Path" fill="#DCD8CD" fill-rule="nonzero"></path>
                <path d="M159.243761,179.71 C154.633761,194.51 134.383761,202 134.383761,202 L140.833761,204.76 C136.223761,207.99 105.833761,215.82 96.1337607,215.36 C86.4337607,214.9 75.8537607,222.28 79.1337607,239.36 C82.4137607,256.44 92.4937607,249.49 92.4937607,249.49 C90.6537607,259.17 94.8037607,284.98 94.8037607,284.98 C85.1237607,285.44 80.0537607,268.85 80.0537607,268.85 C60.6537607,228.27 81.8537607,143.47 86.9137607,130.11 C91.0237607,119.3 105.373761,101.85 110.703761,95.58 L109.343761,93.09 C109.343761,93.09 108.223761,89.09 91.6337607,98.93 C91.6337607,98.93 90.0837607,105.84 88.7237607,112.99 L88.7237607,113.06 C88.7237607,113.06 88.7237607,113.17 88.6037607,113.36 C88.5137495,113.776093 88.4002343,114.186751 88.2637607,114.59 L86.9137607,118.74 C86.797362,118.728818 86.6801594,118.728818 86.5637607,118.74 C83.1237607,127.84 76.7337607,145.51 75.3937607,154.51 C73.5537607,166.96 56.0437607,178.51 53.2737607,169.72 C50.5037607,160.93 26.5537607,137 26.5537607,137 C20.0937607,139.31 13.1837607,131.93 13.1837607,131.93 C11.1137607,132.45 6.18376067,131.37 2.18376067,130.32 C3.18065476,131.433202 4.32449664,132.405468 5.58376067,133.21 L12.9137607,134.33 C12.9137607,134.33 16.2937607,140.02 20.2837607,140.4 C20.2837607,140.4 41.4837607,159.53 49.0137607,180.19 C56.5437607,200.85 67.4837607,197.01 67.4837607,197.01 C67.4837607,197.01 64.6437607,214.44 65.5637607,224.58 C65.5637607,224.58 34.6937607,222.58 40.9937607,249.46 C47.2937607,276.34 63.5737607,289.4 65.7237607,299.08 C65.7237607,299.08 66.3337607,301.54 60.3437607,301.85 C54.3537607,302.16 37.4537607,297.85 37.6137607,304.61 C37.3675576,306.00042 38.2424294,307.343348 39.6137607,307.68 C39.6137607,307.68 44.0737607,312.44 60.0437607,311.52 C76.0137607,310.6 77.7137607,309.83 77.7137607,309.83 C77.7137607,309.83 81.8637607,315.36 100.443761,315.21 C119.023761,315.06 128.553761,311.98 125.023761,306.61 C125.023761,306.61 134.393761,300.31 136.543761,297.08 C138.693761,293.85 163.733761,271.28 154.973761,204.46 C161.499369,199.672788 163.91071,191.04729 160.813761,183.57 C160.363761,182.38 159.833761,181.08 159.243761,179.71 L159.243761,179.71 Z" id="Path" fill="#E7E4DD" fill-rule="nonzero"></path>
                <path d="M125.163761,190.32 C128.853761,185.1 127.623761,177.42 127.313761,165.13 C127.003761,152.84 112.873761,113.83 114.413761,131.65 C115.953761,149.47 109.193761,200.46 109.193761,200.46 L125.163761,190.32 Z" id="Path" fill="#E7E4DD" fill-rule="nonzero"></path>
                <path d="M153.343761,261.84 C154.010427,258.093333 154.603761,254.183333 155.123761,250.11 L138.123761,248.11 L153.343761,261.84 Z M156.343761,228.24 L140.593761,231.4 L156.053761,239.4 C156.253761,235.78 156.350427,232.05 156.343761,228.21 L156.343761,228.24 Z M154.913761,205.82 L142.613761,212.98 L155.913761,216.1 C155.693761,212.74 155.373761,209.32 154.913761,205.82 L154.913761,205.82 Z" id="Shape" fill="#D1CCBD" fill-rule="nonzero"></path>
                <path d="M88.3637607,224.81 C93.5137607,224.1 98.6237607,223.19 103.693761,222.16 C104.963761,221.91 106.223761,221.6 107.493761,221.4 C108.763761,221.2 110.043761,220.98 111.303761,220.73 C113.843761,220.236667 116.367094,219.693333 118.873761,219.1 C123.889972,217.927891 128.834771,216.468825 133.683761,214.73 C138.522603,213.022018 143.187141,210.855502 147.613761,208.26 C149.802178,206.965794 151.885284,205.501267 153.843761,203.88 C154.843761,203.06 155.743761,202.21 156.623761,201.31 C157.463133,200.428559 158.201072,199.455821 158.823761,198.41 C159.424855,197.357909 159.895013,196.236248 160.223761,195.07 C160.530963,193.885086 160.718568,192.672352 160.783761,191.45 C160.858637,188.953359 160.562064,186.459452 159.903761,184.05 C158.508966,179.136876 156.471345,174.429502 153.843761,170.05 C153.533761,169.48 153.173761,168.95 152.843761,168.4 C152.513761,167.85 152.233761,167.26 151.933761,166.69 C151.333761,165.55 150.713761,164.41 150.073761,163.28 C148.803761,161.03 147.463761,158.81 146.073761,156.57 C147.813761,158.52 149.463761,160.57 151.073761,162.57 C151.873761,163.57 152.653761,164.64 153.433761,165.7 C153.813761,166.24 154.213761,166.76 154.553761,167.32 L155.553761,169.02 C158.266797,173.558141 160.371494,178.433238 161.813761,183.52 C162.519208,186.125852 162.835958,188.821599 162.753761,191.52 C162.683693,192.891372 162.47258,194.251882 162.123761,195.58 C161.745591,196.912905 161.208396,198.195458 160.523761,199.4 C159.820554,200.586657 158.981572,201.687401 158.023761,202.68 C157.093384,203.632129 156.115469,204.536617 155.093761,205.39 C153.056006,207.07968 150.889421,208.607657 148.613761,209.96 C144.075182,212.611939 139.297529,214.831689 134.343761,216.59 C129.430908,218.349902 124.423008,219.832241 119.343761,221.03 C116.813761,221.63 114.253761,222.18 111.693761,222.67 L107.853761,223.4 C106.573761,223.64 105.273761,223.75 103.973761,223.9 C98.7737607,224.44 93.5737607,224.8 88.3637607,224.81 L88.3637607,224.81 Z" id="Path" fill="#000000" fill-rule="nonzero"></path>
                <path d="M136.723761,176.14 C136.076138,178.628576 134.910759,180.952518 133.303761,182.96 C131.746116,185.007037 130.016498,186.917312 128.133761,188.67 C127.203761,189.55 126.263761,190.42 125.283761,191.25 C124.303761,192.08 123.233761,192.79 122.213761,193.55 C120.143761,195.06 118.033761,196.49 115.893761,197.88 C107.29569,203.311969 98.4203151,208.292059 89.3037607,212.8 L85.9137607,214.51 L84.2137607,215.36 C83.6795371,215.621271 83.1618927,215.915159 82.6637607,216.24 C78.6340415,218.888528 76.4014418,223.550042 76.8637607,228.35 C76.984964,229.521193 77.260693,230.671184 77.6837607,231.77 C78.1437607,232.95 78.5937607,234.17 79.0037607,235.38 C79.8337607,237.79 80.5737607,240.22 81.4237607,242.56 C82.2737607,244.9 83.2437607,247.24 84.7737607,248.85 C86.3037607,250.46 88.4937607,250.53 90.4237607,249.17 C91.3676432,248.731868 92.0905533,247.925823 92.4237607,246.94 C92.572855,245.840636 92.3169429,244.724575 91.7037607,243.8 C91.5748126,243.57006 91.6344687,243.280302 91.8437607,243.12 C92.4738911,242.646662 93.0417174,242.095635 93.5337607,241.48 C94.0376157,240.893886 94.382012,240.187873 94.5337607,239.43 C94.6480001,238.657927 94.4009443,237.876198 93.8637607,237.31 C93.3003517,236.700798 92.6202072,236.211094 91.8637607,235.87 C92.667521,236.132046 93.4117173,236.550019 94.0537607,237.1 C94.7288416,237.702013 95.0962647,238.57648 95.0537607,239.48 C94.9784096,240.373215 94.671671,241.231394 94.1637607,241.97 C93.6871946,242.705395 93.1193356,243.377417 92.4737607,243.97 L92.5937607,243.23 C93.5308287,244.347795 94.0222445,245.772189 93.9737607,247.23 C93.7551378,248.763581 92.8691599,250.121836 91.5537607,250.94 C90.9503754,251.315226 90.3062263,251.620526 89.6337607,251.85 C88.9148035,252.101162 88.1546039,252.213156 87.3937607,252.18 C86.615839,252.154233 85.852288,251.963345 85.1537607,251.62 C84.4902723,251.283466 83.8884577,250.837177 83.3737607,250.3 C82.4381604,249.29273 81.6655265,248.145588 81.0837607,246.9 C80.5152348,245.728398 80.0111501,244.526607 79.5737607,243.3 C78.6837607,240.88 77.9537607,238.45 77.1337607,236.08 C76.7237607,234.88 76.3037607,233.73 75.8337607,232.54 C75.3460547,231.274484 75.029915,229.949388 74.8937607,228.6 C74.3494458,223.052826 76.9258475,217.661253 81.5837607,214.6 C82.1457722,214.230666 82.7302364,213.896687 83.3337607,213.6 L85.0437607,212.75 L88.4337607,211.05 C97.4759581,206.565483 106.277931,201.612079 114.803761,196.21 C116.923761,194.836667 119.000427,193.416667 121.033761,191.95 C122.033761,191.22 123.033761,190.41 124.033761,189.67 C125.033761,188.93 126.033761,188.19 127.033761,187.42 C129.014671,185.897157 130.876723,184.225657 132.603761,182.42 C134.38833,180.627375 135.790023,178.490814 136.723761,176.14 L136.723761,176.14 Z" id="Path" fill="#000000" fill-rule="nonzero"></path>
                <path d="M88.4637607,224.78 C88.9569201,226.088214 89.3742787,227.423762 89.7137607,228.78 C90.0544168,230.133456 90.3148699,231.505844 90.4937607,232.89 C90.7822302,234.291902 90.826211,235.733117 90.6237607,237.15 C90.3956245,238.618386 89.7137719,239.978595 88.6737607,241.04 C88.6547774,241.061525 88.6274607,241.073856 88.5987607,241.073856 C88.5700606,241.073856 88.542744,241.061525 88.5237607,241.04 C88.51372,241.014278 88.51372,240.985722 88.5237607,240.96 C88.6137607,239.5 88.6437607,238.25 88.6737607,236.96 C88.7037607,235.67 88.9137607,234.36 88.9337607,233.02 C88.9465878,231.667978 88.8898462,230.316191 88.7637607,228.97 C88.6637607,227.62 88.5037607,226.26 88.3037607,224.9 C88.2978658,224.874575 88.303298,224.847844 88.3186487,224.826737 C88.3339994,224.80563 88.3577567,224.792225 88.3837607,224.79 C88.4078426,224.775588 88.4368722,224.77196 88.4637607,224.78 L88.4637607,224.78 Z" id="Path" fill="#000000" fill-rule="nonzero"></path>
                <path d="M111.343761,109.37 C112.012834,107.817877 113.041063,106.446905 114.343761,105.37 C115.717219,104.16044 117.518118,103.551736 119.343761,103.68 C121.153648,103.895747 122.855372,104.655944 124.223761,105.86 C125.538584,106.968869 126.704875,108.242714 127.693761,109.65 C129.608092,112.397074 131.21758,115.344448 132.493761,118.44 C133.793761,121.44 135.003761,124.51 136.223761,127.55 C138.643761,133.64 140.773761,139.85 143.673761,145.63 C146.573761,151.41 151.203761,156.15 156.003761,160.63 C153.386464,158.643676 150.901212,156.489122 148.563761,154.18 C146.240477,151.812301 144.224617,149.161446 142.563761,146.29 C140.944673,143.412107 139.49877,140.440158 138.233761,137.39 L134.373761,128.39 L130.513761,119.39 C129.26839,116.438576 127.762431,113.604027 126.013761,110.92 C125.156227,109.623271 124.149326,108.431772 123.013761,107.37 C121.951393,106.349784 120.618702,105.655674 119.173761,105.37 C117.696224,105.193186 116.203964,105.547642 114.963761,106.37 C113.603957,107.169309 112.381661,108.182261 111.343761,109.37 L111.343761,109.37 Z" id="Path" fill="#000000" fill-rule="nonzero"></path>
                <path d="M155.123761,205.21 C157.059395,215.426046 157.940685,225.813879 157.753761,236.21 C157.682051,241.422307 157.32485,246.626772 156.683761,251.8 C156.01237,257.000556 154.986651,262.149198 153.613761,267.21 C152.250477,272.270546 150.391481,277.184323 148.063761,281.88 L147.193761,283.65 L146.193761,285.35 C145.513761,286.48 144.923761,287.65 144.193761,288.71 C143.463761,289.77 142.733761,290.89 141.953761,291.95 L139.463761,295 C136.00078,298.945193 131.98996,302.373416 127.553761,305.18 L124.123761,307.08 C123.833761,307.23 123.553761,307.4 123.263761,307.54 L122.363761,307.93 L120.573761,308.7 C118.183909,309.719862 115.72841,310.578452 113.223761,311.27 C118.086197,309.533032 122.720028,307.212759 127.023761,304.36 C131.215239,301.415292 134.998146,297.928292 138.273761,293.99 C141.495356,290.020079 144.225163,285.67522 146.403761,281.05 C147.543761,278.77 148.473761,276.38 149.403761,274 L150.643761,270.36 C151.053761,269.15 151.353761,267.9 151.723761,266.68 C154.36794,256.726128 155.870941,246.503711 156.203761,236.21 C156.423761,231.06 156.443761,225.89 156.263761,220.73 C156.083761,215.57 155.723761,210.37 155.123761,205.21 L155.123761,205.21 Z" id="Path" fill="#000000" fill-rule="nonzero"></path>
                <path d="M91.5737607,98.78 C91.271449,103.357129 90.5143852,107.892811 89.3137607,112.32 C88.7137607,114.53 87.9437607,116.7 87.1737607,118.85 L84.9137607,125.32 C81.967094,133.986667 79.3004273,142.723333 76.9137607,151.53 C72.0863555,169.139811 68.8105065,187.138576 67.1237607,205.32 C66.3373277,214.397334 66.0702257,223.51219 66.3237607,232.62 C66.3237607,234.89 66.5137607,237.16 66.5937607,239.44 C66.6737607,241.72 66.8637607,243.98 67.0637607,246.24 C67.2637607,248.5 67.4637607,250.77 67.7837607,253.02 L68.2237607,256.4 L68.7537607,259.77 C69.4924691,264.248375 70.4942023,268.679375 71.7537607,273.04 C73.0193314,277.386715 74.6346039,281.623879 76.5837607,285.71 C78.5512509,289.791279 81.07899,293.577839 84.0937607,296.96 C85.5982344,298.636916 87.2740227,300.151828 89.0937607,301.48 C90.0137733,302.13798 90.9795585,302.729482 91.9837607,303.25 C92.9838833,303.782783 94.0404486,304.202055 95.1337607,304.5 C95.1602997,304.504311 95.1835212,304.520263 95.1970688,304.543487 C95.2106163,304.566711 95.2130709,304.594776 95.2037607,304.62 C95.1891424,304.671845 95.1360853,304.702795 95.0837607,304.69 C92.8295232,304.157942 90.6912103,303.219253 88.7737607,301.92 C86.8376189,300.653491 85.0438896,299.181627 83.4237607,297.53 C81.8136067,295.891205 80.3543748,294.110674 79.0637607,292.21 C77.73437,290.319335 76.5220978,288.348975 75.4337607,286.31 C71.0837607,278.13 68.6137607,269.12 66.9137607,260.1 C66.0437607,255.57 65.5037607,251 65.0637607,246.42 C64.8537607,244.14 64.7137607,241.84 64.5537607,239.55 C64.3937607,237.26 64.3537607,234.96 64.3137607,232.66 C64.138297,223.495125 64.5223443,214.328084 65.4637607,205.21 C67.3752615,186.957543 70.8717891,168.906092 75.9137607,151.26 C78.3937607,142.44 81.2137607,133.73 84.2937607,125.12 L86.6537607,118.67 C87.4437607,116.52 88.2537607,114.39 88.8737607,112.2 C90.1406082,107.816364 90.9680194,103.317525 91.3437607,98.77 C91.3489467,98.7131846 91.3967096,98.6678235 91.4537607,98.67 C91.4853656,98.6632981 91.5182613,98.6722783 91.5420771,98.6941094 C91.5658928,98.7159405 91.5776942,98.7479326 91.5737607,98.78 L91.5737607,98.78 Z" id="Path" fill="#000000" fill-rule="nonzero"></path>
                <path d="M86.4537607,118.59 C85.5860624,119.061423 84.8318153,119.716696 84.2437607,120.51 C83.6286553,121.273481 83.0673054,122.078751 82.5637607,122.92 C81.554626,124.609694 80.6366465,126.352186 79.8137607,128.14 C78.1537607,131.72 76.8737607,135.43 75.2837607,139.14 C73.6891792,142.839376 71.817177,146.412895 69.6837607,149.83 C68.6177245,151.550826 67.4279179,153.191824 66.1237607,154.74 C65.456763,155.531027 64.7168374,156.25756 63.9137607,156.91 C63.510151,157.235254 63.0665412,157.507469 62.5937607,157.72 C62.1178728,157.9396 61.5696486,157.9396 61.0937607,157.72 C61.5706467,157.82712 62.0704045,157.713205 62.4537607,157.41 C62.8582165,157.124469 63.2245179,156.788413 63.5437607,156.41 C64.1993243,155.723942 64.8011021,154.988435 65.3437607,154.21 C66.4337607,152.58 67.3437607,150.85 68.3437607,149.11 C70.1837607,145.62 71.8937607,142.04 73.4637607,138.42 C74.2837607,136.61 74.9837607,134.78 75.7937607,132.92 C76.6037607,131.06 77.4737607,129.25 78.4437607,127.48 C79.4186083,125.702731 80.535582,124.007205 81.7837607,122.41 C82.4135527,121.606753 83.1093021,120.857485 83.8637607,120.17 C84.5847352,119.439253 85.4741032,118.896704 86.4537607,118.59 L86.4537607,118.59 Z" id="Path" fill="#000000" fill-rule="nonzero"></path>
                <path d="M29.7737607,131.95 C30.3560351,133.985082 31.3804116,135.86652 32.7737607,137.46 C34.1154643,139.055729 35.6583133,140.470847 37.3637607,141.67 C39.0537607,142.83 40.9137607,143.97 42.7037607,145.14 C44.4937607,146.31 46.2637607,147.54 48.0237607,148.77 C51.5389793,151.260172 54.9047841,153.954819 58.1037607,156.84 C61.3458261,159.695043 64.2151058,162.947341 66.6437607,166.52 C63.6435216,163.490521 60.4537578,160.654804 57.0937607,158.03 C53.7637607,155.39 50.3337607,152.87 46.8637607,150.4 C45.1437607,149.15 43.3937607,147.93 41.6437607,146.7 C39.8937607,145.47 38.1337607,144.31 36.4137607,142.9 C34.6972684,141.516056 33.2032268,139.876995 31.9837607,138.04 C30.7338131,136.234771 29.9724516,134.13672 29.7737607,131.95 L29.7737607,131.95 Z" id="Path" fill="#000000" fill-rule="nonzero"></path>
                <path d="M20.5537607,140.71 C24.0873125,143.216231 27.3663627,146.06321 30.3437607,149.21 C33.3572252,152.303428 36.1005584,155.648957 38.5437607,159.21 C39.7337607,161.03 40.8737607,162.89 41.8937607,164.81 C42.9095912,166.750206 43.7981339,168.754437 44.5537607,170.81 C45.3042161,172.85735 45.8926927,174.960485 46.3137607,177.1 C46.7025883,179.23381 46.873467,181.401623 46.8237607,183.57 C46.4671825,181.461692 45.9795709,179.377654 45.3637607,177.33 C44.7226887,175.313702 43.9715617,173.334065 43.1137607,171.4 C41.350365,167.564538 39.266297,163.884803 36.8837607,160.4 C34.5043171,156.868387 31.9373021,153.466842 29.1937607,150.21 C26.4337607,146.963333 23.5537607,143.796667 20.5537607,140.71 L20.5537607,140.71 Z" id="Path" fill="#000000" fill-rule="nonzero"></path>
                <path d="M48.6737607,178.04 C49.6737607,180.19 50.7737607,182.27 51.9137607,184.28 C53.0341281,186.278169 54.3114804,188.184166 55.7337607,189.98 C57.1161206,191.762984 58.7497955,193.336028 60.5837607,194.65 C61.5307266,195.291356 62.5350078,195.843711 63.5837607,196.3 C64.6613601,196.755726 65.7752586,197.120335 66.9137607,197.39 C65.7064945,197.524591 64.4857534,197.474008 63.2937607,197.24 C62.0882947,196.973797 60.9220644,196.553685 59.8237607,195.99 C58.7298862,195.404252 57.7037222,194.700021 56.7637607,193.89 C55.8265061,193.071187 54.9600926,192.174667 54.1737607,191.21 C52.6737607,189.301962 51.4454081,187.195258 50.5237607,184.95 C49.5761327,182.748266 48.9529746,180.420687 48.6737607,178.04 L48.6737607,178.04 Z" id="Path" fill="#000000" fill-rule="nonzero"></path>
                <path d="M109.243761,92.33 C110.563761,94.57 111.493761,96.8 112.553761,98.95 C113.057946,100.01262 113.618751,101.047439 114.233761,102.05 C114.833941,103.094195 115.628194,104.014035 116.573761,104.76 C115.214907,104.666403 113.94398,104.05421 113.023761,103.05 C112.084729,102.115971 111.319459,101.022244 110.763761,99.82 C110.200111,98.6726966 109.780269,97.4601916 109.513761,96.21 C109.225393,94.9381548 109.134329,93.6295272 109.243761,92.33 Z" id="Path" fill="#000000" fill-rule="nonzero"></path>
                <path d="M64.3337607,224.73 C60.8499002,224.758946 57.3893478,225.301447 54.0637607,226.34 C50.7875649,227.279306 47.7995831,229.02602 45.3737607,231.42 C44.2433172,232.638412 43.3088585,234.024919 42.6037607,235.53 C41.9203375,237.045206 41.462157,238.652207 41.2437607,240.3 C40.8578636,243.675056 41.0540443,247.091306 41.8237607,250.4 C42.5748434,253.771341 43.5503495,257.08873 44.7437607,260.33 C45.8937607,263.61 47.2437607,266.81 48.7437607,269.98 C50.2437607,273.15 51.8237607,276.22 53.4437607,279.33 C54.2722917,280.890971 55.0134344,282.49678 55.6637607,284.14 C55.99623,284.974675 56.2018429,285.854429 56.2737607,286.75 C56.3263314,287.653705 56.0412122,288.544702 55.4737607,289.25 C55.9422465,288.517678 56.1205475,287.636871 55.9737607,286.78 C55.8304104,285.931287 55.5607526,285.108831 55.1737607,284.34 C54.3974226,282.783862 53.5361231,281.271581 52.5937607,279.81 C50.7637607,276.81 48.9537607,273.81 47.3437607,270.66 C44.0486106,264.375737 41.5525635,257.703934 39.9137607,250.8 C39.1200096,247.26314 38.9541525,243.614285 39.4237607,240.02 C39.7234715,238.200956 40.2789737,236.433449 41.0737607,234.77 C41.8958178,233.115401 42.9950226,231.613718 44.3237607,230.33 C47.0055696,227.868539 50.2952506,226.166742 53.8537607,225.4 C55.5834303,225.003625 57.3426332,224.749443 59.1137607,224.64 C60.8527834,224.507945 62.6003238,224.538075 64.3337607,224.73 Z" id="Path" fill="#000000" fill-rule="nonzero"></path>
                <path d="M142.683761,237.64 C139.58208,234.307448 136.051154,231.402 132.183761,229 C128.408536,226.567577 124.265167,224.760973 119.913761,223.65 C117.750425,223.118325 115.539513,222.803437 113.313761,222.71 L111.653761,222.71 C111.124787,222.718105 110.596945,222.761535 110.073761,222.84 C109.034075,223.003406 108.023568,223.316663 107.073761,223.77 C105.156999,224.730083 103.471517,226.094846 102.133761,227.77 C100.757567,229.489424 99.5956955,231.369909 98.6737607,233.37 C96.8195288,237.456094 95.4760646,241.755179 94.6737607,246.17 C93.8114915,250.608335 93.2734033,255.103544 93.0637607,259.62 C92.8387512,264.149293 92.8988699,268.688255 93.2437607,273.21 C93.5509172,277.755966 94.2196989,282.270242 95.2437607,286.71 C92.4897551,277.934835 91.2090711,268.763921 91.4537607,259.57 C91.5235733,254.95533 91.9650009,250.353782 92.7737607,245.81 C93.5586172,241.224679 94.9263675,236.758487 96.8437607,232.52 C97.8448967,230.372612 99.1078193,228.35731 100.603761,226.52 C102.125264,224.622344 104.056955,223.094086 106.253761,222.05 C107.374484,221.54389 108.564107,221.206886 109.783761,221.05 C110.390499,220.970217 111.001799,220.93 111.613761,220.93 L113.373761,220.99 C115.709295,221.135843 118.022489,221.531433 120.273761,222.17 C124.739099,223.444193 128.953315,225.473511 132.733761,228.17 C134.605191,229.510709 136.385756,230.973912 138.063761,232.55 C139.74286,234.115009 141.288237,235.8176 142.683761,237.64 L142.683761,237.64 Z" id="Path" fill="#000000" fill-rule="nonzero"></path>
                <path d="M55.8137607,279.36 C58.6669825,282.814107 61.20701,286.515385 63.4037607,290.42 C63.9637607,291.42 64.4637607,292.42 64.9437607,293.42 C65.4434955,294.456962 65.864679,295.529977 66.2037607,296.63 C66.3836996,297.209133 66.520737,297.800734 66.6137607,298.4 C66.7438364,299.106097 66.7026858,299.833092 66.4937607,300.52 C66.3271066,300.995252 65.9929076,301.393447 65.5537607,301.64 C65.3824716,301.733122 65.2013587,301.806909 65.0137607,301.86 L64.5637607,302 C63.9780951,302.141122 63.3833284,302.241364 62.7837607,302.3 C60.5132945,302.437953 58.2352428,302.384431 55.9737607,302.14 L49.3437607,301.49 C47.1611062,301.268914 44.9649281,301.212088 42.7737607,301.32 C41.7025765,301.381844 40.6486933,301.618292 39.6537607,302.02 C38.6677368,302.39913 37.923744,303.228682 37.6537607,304.25 C37.5656477,304.992843 37.7582383,305.741806 38.1937607,306.35 C38.4136103,306.648581 38.6971237,306.894521 39.0237607,307.07 C39.3578408,307.257337 39.7187158,307.392244 40.0937607,307.47 L40.0937607,307.67 C39.6952696,307.600004 39.3083064,307.475502 38.9437607,307.3 C38.5595728,307.121659 38.218456,306.86241 37.9437607,306.54 C37.6841338,306.213826 37.4905286,305.840201 37.3737607,305.44 C37.2610118,305.036827 37.2137433,304.618163 37.2337607,304.2 C37.4754829,303.015583 38.2663133,302.016835 39.3637607,301.51 C40.402788,301.012568 41.5185721,300.694738 42.6637607,300.57 C44.8979559,300.318806 47.1497325,300.261926 49.3937607,300.4 L56.0537607,300.77 C58.2199137,300.922797 60.3954493,300.879286 62.5537607,300.64 C63.0582357,300.568818 63.5564064,300.458485 64.0437607,300.31 L64.3837607,300.19 C64.464116,300.161605 64.5412177,300.12473 64.6137607,300.08 C64.6137607,300.08 64.6137607,300.08 64.6837607,299.93 C64.7490815,299.537454 64.7320543,299.135613 64.6337607,298.75 C64.5434953,298.253579 64.4130667,297.765308 64.2437607,297.29 C63.5034357,295.258414 62.6453135,293.271711 61.6737607,291.34 C59.7537607,287.34 57.6737607,283.49 55.6737607,279.5 L55.8137607,279.36 Z" id="Path" fill="#000000" fill-rule="nonzero"></path>
                <path d="M44.9137607,303.5 C43.4112114,304.251874 42.0562737,305.268077 40.9137607,306.5 C40.6952852,306.755543 40.5531946,307.067449 40.5037607,307.4 C40.5061124,307.672076 40.6356164,307.927384 40.8537607,308.09 C41.4496595,308.549257 42.1288158,308.888835 42.8537607,309.09 C43.6509832,309.328321 44.4626424,309.51537 45.2837607,309.65 C46.1137607,309.81 46.9437607,309.94 47.7937607,310.03 C49.4837607,310.24 51.1837607,310.44 52.8837607,310.56 C59.7302459,311.023248 66.6010877,310.996513 73.4437607,310.48 C70.1129913,311.529274 66.6746647,312.200167 63.1937607,312.48 C59.710428,312.785084 56.2070933,312.785084 52.7237607,312.48 C50.9761268,312.337204 49.2371084,312.103554 47.5137607,311.78 C45.7550619,311.50417 44.0293414,311.048446 42.3637607,310.42 C41.440264,310.110197 40.6014937,309.589817 39.9137607,308.9 C39.494492,308.444426 39.3098565,307.820359 39.4137607,307.21 C39.5278617,306.685001 39.8042429,306.209205 40.2037607,305.85 C40.8725862,305.236102 41.6399728,304.73916 42.4737607,304.38 C43.2614464,304.01991 44.0775607,303.725573 44.9137607,303.5 L44.9137607,303.5 Z" id="Path" fill="#000000" fill-rule="nonzero"></path>
                <path d="M53.2837607,304.85 C52.5104551,305.371391 51.7903201,305.967596 51.1337607,306.63 C50.4933899,307.177866 50.0623336,307.930447 49.9137607,308.76 C49.9137607,309.38 50.5937607,309.76 51.3837607,310.05 C52.2208226,310.303214 53.0822521,310.467455 53.9537607,310.54 C54.2196436,310.56762 54.4634001,310.700542 54.6306186,310.909096 C54.7978372,311.117649 54.8745959,311.384471 54.8437607,311.65 C54.816047,311.913947 54.6845458,312.156052 54.4782226,312.322987 C54.2718993,312.489921 54.0076789,312.567991 53.7437607,312.54 L53.5637607,312.54 C52.5915886,312.280226 51.6496672,311.918206 50.7537607,311.46 C50.2654771,311.200344 49.8229654,310.862549 49.4437607,310.46 C49.0060954,309.985907 48.8106663,309.336935 48.9137607,308.7 C49.0295114,308.159916 49.2965811,307.66393 49.6837607,307.27 C50.021274,306.898596 50.3966422,306.563446 50.8037607,306.27 C51.5812268,305.715495 52.4119948,305.239813 53.2837607,304.85 L53.2837607,304.85 Z" id="Path" fill="#000000" fill-rule="nonzero"></path>
                <path d="M95.5937607,282.87 C98.4434889,286.303222 100.980272,289.98457 103.173761,293.87 C103.733761,294.87 104.243761,295.87 104.723761,296.87 C105.22086,297.908111 105.641966,298.980929 105.983761,300.08 C106.160112,300.656709 106.297094,301.244728 106.393761,301.84 C106.520209,302.546916 106.475634,303.27383 106.263761,303.96 C106.097584,304.438058 105.763579,304.839574 105.323761,305.09 C105.149224,305.176087 104.968766,305.249607 104.783761,305.31 L104.333761,305.44 C103.74844,305.582801 103.153553,305.683062 102.553761,305.74 C100.286823,305.887864 98.0112356,305.834321 95.7537607,305.58 L89.1237607,304.94 C86.9380814,304.713916 84.7381984,304.65708 82.5437607,304.77 C81.4720444,304.828021 80.4175412,305.064608 79.4237607,305.47 C78.4362711,305.8415 77.6905644,306.669234 77.4237607,307.69 C77.3410022,308.427896 77.5293715,309.170711 77.9537607,309.78 C78.1770827,310.081764 78.4638041,310.330939 78.7937607,310.51 C79.1288112,310.693012 79.489528,310.824488 79.8637607,310.9 L79.8637607,311.1 C79.4639063,311.035598 79.0761518,310.910842 78.7137607,310.73 C78.3256998,310.558152 77.9832367,310.29788 77.7137607,309.97 C77.4487765,309.651091 77.254496,309.279572 77.1437607,308.88 C77.0272266,308.477574 76.9798868,308.058279 77.0037607,307.64 C77.242462,306.45418 78.0342549,305.454216 79.1337607,304.95 C80.1744952,304.455232 81.2892595,304.134315 82.4337607,304 C84.6712494,303.747078 86.9267909,303.693534 89.1737607,303.84 L95.8237607,304.2 C97.9932477,304.3528 100.172103,304.30929 102.333761,304.07 C102.838875,304.002384 103.337333,303.891987 103.823761,303.74 L104.163761,303.62 L104.383761,303.52 C104.383761,303.52 104.383761,303.52 104.463761,303.37 C104.535316,302.979921 104.535316,302.580079 104.463761,302.19 C104.362874,301.692735 104.232647,301.201877 104.073761,300.72 C103.32492,298.691812 102.467002,296.705582 101.503761,294.77 C99.5737607,290.77 97.5037607,286.92 95.5037607,282.94 L95.5937607,282.87 Z" id="Path" fill="#000000" fill-rule="nonzero"></path>
                <path d="M84.7037607,307 C83.1830083,307.750958 81.8081975,308.766828 80.6437607,310 C80.4276537,310.259774 80.289034,310.575134 80.2437607,310.91 C80.2452482,311.179978 80.3705825,311.434333 80.5837607,311.6 C81.1818759,312.055712 81.860322,312.394935 82.5837607,312.6 C83.381743,312.838011 84.1931759,313.028347 85.0137607,313.17 C85.8337607,313.32 86.6737607,313.45 87.5237607,313.55 C89.2137607,313.76 90.9037607,313.96 92.6037607,314.07 C99.4500904,314.538105 106.321281,314.511369 113.163761,313.99 C109.836643,315.040189 106.401523,315.711111 102.923761,315.99 C99.4373059,316.300026 95.9302155,316.300026 92.4437607,315.99 C90.6960292,315.843182 88.9570465,315.6062 87.2337607,315.28 C85.477248,315.00926 83.7543199,314.553388 82.0937607,313.92 C81.1717674,313.603332 80.3363149,313.076039 79.6537607,312.38 C79.2398708,311.933186 79.0521349,311.322123 79.1437607,310.72 C79.2634907,310.200058 79.5391099,309.729063 79.9337607,309.37 C80.6066251,308.758723 81.3729829,308.259072 82.2037607,307.89 C83.0124934,307.528303 83.8484,307.23072 84.7037607,307 L84.7037607,307 Z" id="Path" fill="#000000" fill-rule="nonzero"></path>
                <path d="M93.0637607,308.36 C92.2864642,308.872237 91.5657572,309.465563 90.9137607,310.13 C90.2681148,310.67348 89.8358815,311.428116 89.6937607,312.26 C89.6937607,312.88 90.3737607,313.26 91.1637607,313.55 C92.0016452,313.801811 92.8625845,313.969309 93.7337607,314.05 C94.2860454,314.10799 94.6867505,314.602715 94.6287606,315.155 C94.5707707,315.707285 94.0760454,316.10799 93.5237607,316.05 L93.3437607,316.05 C92.3707439,315.788401 91.4286657,315.422969 90.5337607,314.96 C90.043871,314.702855 89.6009666,314.36476 89.2237607,313.96 C88.7887321,313.484405 88.593694,312.836731 88.6937607,312.2 C88.8093023,311.656921 89.0762676,311.157661 89.4637607,310.76 C89.8008678,310.391874 90.1725769,310.057001 90.5737607,309.76 C91.3543,309.21036 92.1885682,308.741293 93.0637607,308.36 L93.0637607,308.36 Z" id="Path" fill="#000000" fill-rule="nonzero"></path>
                <path d="M125.203761,305.69 C125.715802,306.205203 126.120309,306.817062 126.393761,307.49 C126.529572,307.849653 126.613742,308.226733 126.643761,308.61 C126.660568,309.017181 126.588924,309.423167 126.433761,309.8 C126.295128,310.17099 126.084409,310.510859 125.813761,310.8 C125.567204,311.039336 125.303138,311.259948 125.023761,311.46 C124.480897,311.789266 123.899954,312.051194 123.293761,312.24 C123.003761,312.33 122.713761,312.44 122.423761,312.51 L121.543761,312.7 C120.962877,312.826624 120.375261,312.920108 119.783761,312.98 C118.613761,313.16 117.423761,313.17 116.253761,313.26 C117.403761,313.01 118.563761,312.83 119.683761,312.49 C120.245966,312.350347 120.800125,312.180094 121.343761,311.98 L122.143761,311.68 C122.413761,311.58 122.653761,311.44 122.913761,311.32 C123.913761,310.84 124.913761,310.13 125.013761,309.32 C125.113761,308.51 124.583761,307.76 123.903761,307.23 L125.203761,305.69 Z" id="Path" fill="#000000" fill-rule="nonzero"></path>
                <path d="M27.8137607,135.72 C28.2730047,133.365648 29.1069313,131.100204 30.2837607,129.01 C30.8868473,127.936369 31.6300277,126.947703 32.4937607,126.07 C32.7137607,125.86 32.9437607,125.65 33.1937607,125.45 C33.4437607,125.25 33.4337607,125.25 33.5637607,125.16 L33.7537607,125.02 C33.7537607,125.02 33.8237607,124.97 33.8437607,124.93 C34.0734206,124.717039 34.1117621,124.367705 33.9337607,124.11 C33.8910174,124.056118 33.8404586,124.00893 33.7837607,123.97 L33.4437607,123.73 C33.2184321,123.580104 32.9847173,123.443214 32.7437607,123.32 C32.2863631,123.073444 31.7940352,122.898094 31.2837607,122.8 C30.3084728,122.620194 29.3022509,122.851842 28.5037607,123.44 C26.8337607,124.61 25.7637607,126.75 24.9537607,128.85 C24.743687,129.319578 24.2116245,129.553166 23.7237607,129.39 C23.5236893,129.308744 23.3552957,129.164908 23.2437607,128.98 C21.2333033,125.592674 19.5234347,122.035746 18.1337607,118.35 C17.4361022,116.479479 16.900792,114.552362 16.5337607,112.59 C16.3613851,111.59913 16.2710786,110.595725 16.2637607,109.59 C16.2386714,108.901339 15.8608177,108.274102 15.2637607,107.93 C14.6598116,107.555841 13.9081149,107.51074 13.2637607,107.81 C12.9400698,107.964139 12.663763,108.202454 12.4637607,108.5 C12.2293441,108.842414 12.044201,109.216066 11.9137607,109.61 C11.3364998,111.337479 11.229503,113.187489 11.6037607,114.97 C12.4005418,118.740248 13.7483412,122.372567 15.6037607,125.75 C14.5005855,124.147451 13.498633,122.47753 12.6037607,120.75 C11.6712738,118.994515 10.9495986,117.134943 10.4537607,115.21 C9.87869907,113.217326 9.87869907,111.102674 10.4537607,109.11 C10.6262893,108.589739 10.8684909,108.095244 11.1737607,107.64 C11.5002708,107.117835 11.954597,106.687602 12.4937607,106.39 C13.6313845,105.803102 14.9873533,105.82503 16.1054057,106.448404 C17.2234581,107.071779 17.9549554,108.213726 18.0537607,109.49 C18.0981311,110.40508 18.2185463,111.314884 18.4137607,112.21 C18.7865455,114.053657 19.3116807,115.863199 19.9837607,117.62 C21.3555564,121.202557 23.0038582,124.673018 24.9137607,128 L23.2137607,128.14 C23.6782553,126.987112 24.2472955,125.879157 24.9137607,124.83 C25.6056209,123.716739 26.5217353,122.759757 27.6037607,122.02 C28.7871137,121.254179 30.2306618,121.001558 31.6037607,121.32 C32.251193,121.476442 32.8714485,121.729263 33.4437607,122.07 C33.7237607,122.23 33.9937607,122.42 34.2537607,122.6 L34.6237607,122.9 C34.7957388,123.042563 34.9442203,123.211292 35.0637607,123.4 C35.5344314,124.197025 35.3658696,125.216823 34.6637607,125.82 C34.5847566,125.888836 34.5012368,125.952311 34.4137607,126.01 L34.2337607,126.12 L33.8937607,126.35 C33.6652038,126.512188 33.444927,126.685739 33.2337607,126.87 C32.3606279,127.623541 31.581659,128.479736 30.9137607,129.42 C29.5933074,131.3661 28.5499766,133.486418 27.8137607,135.72 L27.8137607,135.72 Z" id="Path" fill="#000000" fill-rule="nonzero"></path>
                <path d="M12.1237607,130.53 C9.84376067,129.58 7.61376067,128.53 5.41376067,127.44 C4.85376067,127.17 4.30376067,126.9 3.76376067,126.61 L2.91376067,126.21 C2.76990213,126.12791 2.60909003,126.080009 2.44376067,126.07 C2.33938844,126.079761 2.24445471,126.13453 2.18376067,126.22 C2.05477808,126.361913 1.95609976,126.528645 1.89376067,126.71 C1.81561543,126.907424 1.77492163,127.117676 1.77376067,127.33 C1.76873094,127.571916 1.79222628,127.813583 1.84376067,128.05 C2.42878199,130.141632 4.03768187,131.791979 6.11376067,132.43 C8.31735187,133.170916 10.6431572,133.479891 12.9637607,133.34 C13.3359485,133.33014 13.6766005,133.547999 13.8237607,133.89 C14.2744839,134.889344 14.8562625,135.824225 15.5537607,136.67 C16.2503092,137.530669 17.0809485,138.273517 18.0137607,138.87 C18.9625457,139.464106 20.0254549,139.852477 21.1337607,140.01 C22.2933047,140.151725 23.4680224,140.107842 24.6137607,139.88 C23.5103925,140.402418 22.3134588,140.698251 21.0937607,140.75 C19.8263101,140.780071 18.5694268,140.51294 17.4237607,139.97 C16.273136,139.424207 15.23254,138.671724 14.3537607,137.75 C13.459008,136.829276 12.7103508,135.777109 12.1337607,134.63 L13.0237607,135.18 C10.4353528,135.441479 7.82106976,135.134317 5.36376067,134.28 C4.08171525,133.796489 2.91872524,133.042762 1.95376067,132.07 C0.950590468,131.057907 0.289647193,129.757003 0.0637606684,128.35 C0.00159115876,127.980091 -0.0151996406,127.603977 0.0137606684,127.23 C0.0425780072,126.829466 0.14070111,126.436974 0.303760668,126.07 C0.466159686,125.68971 0.708277322,125.3487 1.01376067,125.07 C1.38858758,124.713895 1.88675423,124.516779 2.40376067,124.519961 C2.85170417,124.539784 3.28642822,124.677791 3.66376067,124.92 L4.44376067,125.41 L5.99376067,126.41 C8.10376067,127.68 10.1337607,129.06 12.1237607,130.53 L12.1237607,130.53 Z" id="Path" fill="#000000" fill-rule="nonzero"></path>
                <path d="M19.2437607,123.91 C17.8400032,124.856416 16.5034726,125.89891 15.2437607,127.03 C14.7000865,127.55656 14.2502925,128.172067 13.9137607,128.85 C13.5713207,129.650145 13.316503,130.485008 13.1537607,131.34 C12.5499073,130.511999 12.2754618,129.489066 12.3837607,128.47 C12.5100946,127.398851 12.9884435,126.399946 13.7437607,125.63 C14.467214,124.916413 15.3523051,124.388103 16.3237607,124.09 C17.2645907,123.775605 18.2714395,123.713539 19.2437607,123.91 L19.2437607,123.91 Z" id="Path" fill="#000000" fill-rule="nonzero"></path>
                <path d="M15.5037607,125.75 C13.5037607,122.91 11.5037607,120.05 9.34376067,117.34 C8.32052371,116.003686 7.18289578,114.758987 5.94376067,113.62 C5.49579164,113.164561 4.93232567,112.839618 4.31376067,112.68 C4.21376067,112.68 4.21376067,112.68 4.06376067,112.88 C3.91095355,113.202805 3.78389148,113.537178 3.68376067,113.88 C2.73376067,116.88 3.94376067,120.13 5.75376067,122.93 C7.68818298,125.781213 9.95029888,128.395735 12.4937607,130.72 C9.39675503,128.980561 6.67719112,126.641736 4.49376067,123.84 C3.89694869,123.120399 3.36802582,122.3471 2.91376067,121.53 C2.45495721,120.71798 2.08290717,119.859918 1.80376067,118.97 C1.21353307,117.112021 1.19263723,115.119951 1.74376067,113.25 C1.90659273,112.753917 2.11759906,112.274966 2.37376067,111.82 C2.56610649,111.512251 2.8260112,111.252346 3.13376067,111.06 C3.47473413,110.845142 3.87078383,110.733971 4.27376067,110.74 C4.88809953,110.770914 5.48254422,110.96791 5.99376067,111.31 C6.4057927,111.582729 6.79087003,111.894139 7.14376067,112.24 C8.42938789,113.51057 9.56666522,114.922941 10.5337607,116.45 C12.4755661,119.388976 14.1394185,122.502422 15.5037607,125.75 L15.5037607,125.75 Z" id="Path" fill="#000000" fill-rule="nonzero"></path>
                <path d="M137.023761,296.41 C142.136963,299.729166 147.599829,302.47569 153.313761,304.6 C159.042421,306.76464 164.986253,308.310104 171.043761,309.21 C177.116888,310.107945 183.279359,310.232269 189.383761,309.58 C195.509363,308.896529 201.515984,307.396555 207.243761,305.12 C201.559398,307.561174 195.572315,309.226122 189.443761,310.07 C183.297972,310.901552 177.071412,310.948596 170.913761,310.21 C164.74353,309.46049 158.671895,308.049028 152.803761,306 C146.898224,303.984186 141.233781,301.321327 135.913761,298.06 L137.023761,296.41 Z" id="Path" fill="#000000" fill-rule="nonzero"></path>
                <path d="M156.393761,219.71 C157.661448,218.336522 159.014108,217.04398 160.443761,215.84 C161.860377,214.635042 163.360822,213.532265 164.933761,212.54 C166.506355,211.543904 168.182943,210.722376 169.933761,210.09 C171.672876,209.474332 173.509328,209.179551 175.353761,209.22 C173.540329,209.345474 171.764805,209.79952 170.113761,210.56 C168.484161,211.323316 166.944667,212.265794 165.523761,213.37 C164.103687,214.459093 162.766659,215.652391 161.523761,216.94 C160.268566,218.199004 159.09296,219.53492 158.003761,220.94 C157.844464,221.155086 157.605593,221.297338 157.340594,221.334926 C157.075595,221.372515 156.806588,221.302303 156.593761,221.14 C156.380215,220.979205 156.239937,220.739607 156.204238,220.474687 C156.16854,220.209768 156.240394,219.941584 156.403761,219.73 L156.393761,219.71 Z" id="Path" fill="#000000" fill-rule="nonzero"></path>
                <path d="M155.973761,212.78 C157.653761,211.46 159.403761,210.22 161.183761,209.04 C162.063761,208.44 162.963761,207.86 163.873761,207.28 C164.783761,206.7 165.683761,206.14 166.613761,205.6 C170.302761,203.404536 174.115812,201.424555 178.033761,199.67 C181.979101,197.91974 186.050606,196.468974 190.213761,195.33 C194.421686,194.214138 198.750805,193.619682 203.103761,193.56 C203.468274,193.596845 203.783456,193.830074 203.925255,194.167891 C204.067055,194.505708 204.012768,194.894023 203.783761,195.18 C203.190402,195.762997 202.551732,196.298008 201.873761,196.78 C201.243761,197.26 200.573761,197.67 199.873761,198.09 C198.533761,198.9 197.173761,199.66 195.783761,200.34 C193.012321,201.70951 190.164267,202.91818 187.253761,203.96 C184.353761,205.01 181.423761,205.96 178.453761,206.76 L173.993761,207.93 C172.503761,208.29 170.993761,208.62 169.513761,208.93 C170.963761,208.43 172.413761,207.93 173.873761,207.47 L178.203761,205.95 L182.493761,204.35 C183.913761,203.78 185.333761,203.23 186.733761,202.63 C189.553761,201.48 192.293761,200.16 194.973761,198.77 C196.323761,198.07 197.613761,197.3 198.873761,196.49 C199.493761,196.08 200.113761,195.66 200.703761,195.22 C201.271646,194.808961 201.806602,194.354248 202.303761,193.86 L203.023761,195.48 C198.840154,195.600415 194.682193,196.177164 190.623761,197.2 C186.542864,198.27711 182.534744,199.61315 178.623761,201.2 C174.693761,202.78 170.853761,204.6 167.063761,206.52 C163.273761,208.44 159.623761,210.56 155.973761,212.78 L155.973761,212.78 Z" id="Path" fill="#000000" fill-rule="nonzero"></path>
                <path d="M146.763761,283.15 C151.248156,285.545432 155.904301,287.604431 160.693761,289.31 C165.480006,291.071786 170.42195,292.377584 175.453761,293.21 C180.477882,294.073738 185.616436,294.026315 190.623761,293.07 C195.677901,292.07522 200.277879,289.48072 203.743761,285.67 C202.071121,287.636219 200.096466,289.323958 197.893761,290.67 C195.672784,291.996683 193.261393,292.974729 190.743761,293.57 C185.680418,294.706873 180.453859,294.923659 175.313761,294.21 C170.182495,293.546079 165.126261,292.394196 160.213761,290.77 C155.27605,289.189853 150.462761,287.244482 145.813761,284.95 L146.763761,283.15 Z" id="Path" fill="#000000" fill-rule="nonzero"></path>
                <path d="M203.103761,194.53 C193.493761,194.53 183.033761,198.16 174.403761,202.22 C176.513761,202.58 178.673761,203.6 177.843761,206.55 C198.043761,200.21 203.103761,194.53 203.103761,194.53 Z" id="Path" fill="#000000" fill-rule="nonzero"></path>
                <path d="M187.383761,292.21 C190.253381,291.652854 192.920052,290.333335 195.103761,288.39 C197.164965,286.470095 198.2645,283.732252 198.103761,280.92 C198.103761,278.19 196.553761,275.75 194.603761,273.73 C192.554838,271.704851 190.26819,269.9353 187.793761,268.46 C182.752091,265.466086 177.478534,262.88114 172.023761,260.73 C166.550427,258.51 161.003761,256.463333 155.383761,254.59 C161.215846,255.746492 166.957296,257.320545 172.563761,259.3 C178.23383,261.221118 183.689618,263.72448 188.843761,266.77 C191.461476,268.336538 193.867727,270.231965 196.003761,272.41 C197.088669,273.545744 197.998624,274.836532 198.703761,276.24 C199.441054,277.687479 199.805399,279.296096 199.763761,280.92 C199.751406,282.50913 199.410961,284.078581 198.763761,285.53 C198.076849,286.953309 197.078943,288.204109 195.843761,289.19 C194.635635,290.116049 193.284568,290.838869 191.843761,291.33 C190.408696,291.841927 188.905721,292.138478 187.383761,292.21 L187.383761,292.21 Z" id="Path" fill="#000000" fill-rule="nonzero"></path>
                <path d="M200.053761,305.21 C204.01232,303.644592 207.435674,300.971182 209.913761,297.51 C212.29136,294.060073 213.675082,290.023062 213.913761,285.84 C214.054132,283.76311 214.003922,281.677728 213.763761,279.61 C213.475344,277.593327 212.824895,275.645365 211.843761,273.86 C209.752035,270.26039 206.931877,267.1371 203.563761,264.69 C200.192012,262.137342 196.58978,259.90436 192.803761,258.02 C189.033761,256.08 185.103761,254.41 181.143761,252.84 C177.183761,251.27 173.143761,249.89 169.043761,248.61 C164.943761,247.33 160.843761,246.15 156.683761,245.09 C165.18673,246.452649 173.552616,248.564198 181.683761,251.4 C189.793761,254.27 197.793761,257.82 204.793761,263.12 C208.374142,265.743575 211.356587,269.097547 213.543761,272.96 C214.601782,274.961436 215.279889,277.14155 215.543761,279.39 C215.773771,281.583988 215.773771,283.796012 215.543761,285.99 C215.132707,290.411687 213.459645,294.622112 210.723761,298.12 C209.345364,299.81222 207.724533,301.291523 205.913761,302.51 C204.121727,303.725297 202.141954,304.637479 200.053761,305.21 L200.053761,305.21 Z" id="Path" fill="#000000" fill-rule="nonzero"></path>
                <path d="M124.013761,149.46 C125.073761,152.69 126.013761,155.97 126.763761,159.27 C127.513761,162.57 128.193761,165.93 128.663761,169.27 C129.14949,172.667288 129.35019,176.099253 129.263761,179.53 C129.244187,183.069219 128.459594,186.562362 126.963761,189.77 C126.703469,190.244001 126.113519,190.425208 125.632026,190.179052 C125.150534,189.932895 124.951955,189.348563 125.183761,188.86 L125.183761,188.81 C126.695659,185.909166 127.56536,182.716851 127.733761,179.45 C127.985262,176.099882 127.951808,172.734457 127.633761,169.39 C127.343761,166.03 126.863761,162.68 126.243761,159.39 C125.623761,156.1 124.913761,152.74 124.013761,149.46 L124.013761,149.46 Z" id="Path" fill="#000000" fill-rule="nonzero"></path>
                <path d="M55.6237607,244.54 C57.6416096,245.398315 59.4750652,246.637595 61.0237607,248.19 C62.6051302,249.713497 63.9922957,251.426462 65.1537607,253.29 C66.3010013,255.149205 67.2272708,257.135986 67.9137607,259.21 C68.2611774,260.238258 68.5450463,261.286903 68.7637607,262.35 C68.9599862,263.418267 69.0968627,264.496586 69.1737607,265.58 C68.6637607,264.58 68.2837607,263.58 67.8337607,262.66 L67.1437607,261.21 C66.9337607,260.73 66.7137607,260.21 66.4637607,259.79 C66.2137607,259.37 65.9837607,258.85 65.7637607,258.38 C65.5437607,257.91 65.2637607,257.46 65.0137607,257.01 C64.5537607,256.07 64.0137607,255.2 63.4537607,254.31 C62.3721156,252.543797 61.1901794,250.841007 59.9137607,249.21 C58.5908972,247.55821 57.1576134,245.997969 55.6237607,244.54 Z" id="Path" fill="#000000" fill-rule="nonzero"></path>
                <path d="M131.573761,259.09 C130.445828,259.927925 129.407033,260.879595 128.473761,261.93 C127.559416,262.894293 126.875607,264.053348 126.473761,265.32 C126.163499,266.493192 126.332593,267.741613 126.943761,268.79 C127.632698,269.876705 128.51373,270.828898 129.543761,271.6 L130.463761,272.32 L129.553761,273.13 C128.341898,274.232727 127.264443,275.474654 126.343761,276.83 C125.416545,278.189126 124.689134,279.674258 124.183761,281.24 C123.652273,282.812893 123.421591,284.471772 123.503761,286.13 C123.58421,287.830452 123.893667,289.512282 124.423761,291.13 C123.443692,289.635558 122.764356,287.96439 122.423761,286.21 C122.258261,285.312917 122.177904,284.402202 122.183761,283.49 C122.31221,280.725559 123.17892,278.046008 124.693761,275.73 C125.675665,274.168653 126.889575,272.765912 128.293761,271.57 L128.293761,273.1 C127.050874,272.157528 126.02732,270.956558 125.293761,269.58 C124.934625,268.840314 124.717533,268.039785 124.653761,267.22 C124.611053,266.402221 124.740512,265.584586 125.033761,264.82 C125.6314,263.412417 126.577839,262.180326 127.783761,261.24 C128.931069,260.335752 130.208948,259.610834 131.573761,259.09 L131.573761,259.09 Z" id="Path" fill="#000000" fill-rule="nonzero"></path>
                <path d="M109.913761,99.44 C109.913761,99.44 105.913761,83.21 123.913761,85.46 C123.913761,85.46 119.913761,74.01 128.243761,73.55 C128.243761,73.55 155.423761,81.63 160.393761,58.95 C160.393761,58.95 163.993761,52.61 144.253761,47.42 C144.253761,47.42 146.303761,15.34 110.123761,14.49 C110.123761,14.49 90.6637607,9.88 72.6537607,26.02 C72.6537607,26.02 48.9737607,39.13 73.5637607,77.56 C73.5637607,77.56 76.3737607,80.13 75.2237607,81.38 L84.9237607,84.45 L80.8337607,87.21 C80.8337607,87.21 94.8337607,87.64 97.8337607,94.37 C97.8237607,94.4 103.303761,94.4 109.913761,99.44 L109.913761,99.44 Z" id="Path" fill="#F2F1ED" fill-rule="nonzero"></path>
                <ellipse id="Oval" fill="#F2F1ED" fill-rule="nonzero" cx="133.903761" cy="24.24" rx="5.92" ry="4.64"></ellipse>
                <path d="M84.9637607,84.45 L80.0937607,82.91 C79.4537607,82.31 78.7937607,81.7 78.0937607,81.09 C83.4837607,79.4 87.5937607,77.02 88.7237607,75.14 C90.4537607,72.25 98.7237607,69.56 98.7237607,69.56 L94.7237607,67.64 C99.7237607,65.72 118.723761,66.64 123.553761,69.18 C126.933761,70.94 142.113761,73.42 145.863761,74.18 C137.293761,76.18 132.373761,74.72 132.373761,74.72 C116.913761,76.35 123.913761,85.46 123.913761,85.46 C100.243761,83.16 111.913761,107.76 111.913761,107.76 C93.2337607,107.54 97.4037607,105.35 88.2037607,90.57 C87.9737607,90.35 87.7337607,90.15 87.4937607,89.96 L87.4137607,89.9 C87.1894619,89.7179337 86.9558106,89.547702 86.7137607,89.39 L86.6237607,89.33 L85.8937607,88.88 L85.8337607,88.88 C85.5877031,88.7362851 85.3339932,88.6060919 85.0737607,88.49 C84.4337607,87.63 83.7237607,86.75 82.9437607,85.86 L84.9437607,84.48 L84.9637607,84.45 Z" id="Path" fill="#E7E4DD" fill-rule="nonzero"></path>
                <path d="M133.413761,24.9 C133.413761,24.9 123.903761,26.49 129.823761,38.56 C129.797486,40.1286542 130.599169,41.595239 131.933761,42.42 C135.433761,44.5 142.313761,52.48 141.243761,39.77 C140.793761,34.37 138.033761,26.75 133.413761,24.9 L133.413761,24.9 Z" id="Path" fill="#B1AFA9" fill-rule="nonzero"></path>
                <path d="M118.513761,77.89 C118.513761,77.89 113.783761,76.89 116.953761,74.49 C116.953761,74.49 99.4837607,70.89 99.6537607,76.36 C99.8237607,81.83 118.513761,77.89 118.513761,77.89 Z" id="Path" fill="#D1CCBD" fill-rule="nonzero"></path>
                <path d="M84.1837607,47.84 C87.8537607,45.62 90.0637607,45.1 89.6237607,40.84 C89.1837607,36.58 89.9037607,31.67 94.1837607,28.95 C103.263761,23.18 125.743761,20.73 122.863761,45.66 C122.863761,45.66 122.283761,55.9 105.423761,55.9 C88.5637607,55.9 82.5137607,54.35 82.6537607,50.21 C82.7035899,49.2033486 83.28688,48.2998208 84.1837607,47.84 L84.1837607,47.84 Z" id="Path" fill="#B1AFA9" fill-rule="nonzero"></path>
                <path d="M117.343761,-6.39488462e-14 C117.343761,-6.39488462e-14 107.243761,4.8 114.073761,9.6 C122.963761,15.86 125.073761,13.83 132.123761,19.71 C132.123761,19.71 126.933761,21.71 125.303761,23.8 C125.303761,23.8 123.573761,20.92 117.303761,18.51 C113.282425,17.0004161 109.136578,15.8460037 104.913761,15.06 C104.913761,15.06 116.053761,17.75 118.653761,24.06 C118.653761,24.06 112.433761,18.29 97.9037607,18.87 C75.5237607,19.76 72.2737607,42.42 75.3437607,50.39 C75.3437607,50.39 67.9937607,46.01 60.9337607,48.89 C60.9337607,48.89 57.1237607,38.37 52.0837607,35.49 C52.0837607,35.49 67.9737607,27.41 57.0137607,16.49 C57.0137607,16.49 74.6237607,21.55 73.4737607,5.99 C73.4737607,5.99 90.7437607,10.86 90.7437607,0.05 C90.7637607,0.04 88.7937607,13.76 117.343761,-6.39488462e-14 L117.343761,-6.39488462e-14 Z" id="Path" fill="#D1CCBD" fill-rule="nonzero"></path>
                <path d="M143.413761,47.32 C143.917163,43.1659437 143.448156,38.9517343 142.043761,35.01 C140.691915,30.9718677 138.492821,27.2692062 135.593761,24.15 C138.7604,27.1025067 141.256594,30.7001629 142.913761,34.7 C144.664151,38.7336492 145.451595,43.1193705 145.213761,47.51 L143.413761,47.32 Z" id="Path" fill="#000000" fill-rule="nonzero"></path>
                <path d="M124.423761,77.27 C123.778128,77.6908403 123.254053,78.2735284 122.903761,78.96 C122.58488,79.6394391 122.463593,80.394888 122.553761,81.14 C122.637947,81.887263 122.840478,82.6163751 123.153761,83.3 C123.450103,83.9861142 123.822428,84.6368445 124.263761,85.24 C124.387454,85.4085879 124.351704,85.6454327 124.183761,85.77 C124.10963,85.8185334 124.022316,85.8429813 123.933761,85.84 L123.913761,85.84 C121.532222,85.6475567 119.135852,85.9123115 116.853761,86.62 C115.771008,86.9902766 114.75723,87.537717 113.853761,88.24 C112.984165,88.9455766 112.257748,89.8111679 111.713761,90.79 C110.674328,92.9002488 110.153242,95.2279947 110.193761,97.58 C110.210041,100.039644 110.3938,102.495325 110.743761,104.93 C109.781074,102.591963 109.164584,100.126003 108.913761,97.61 C108.913761,96.98 108.843761,96.33 108.843761,95.69 C108.860685,95.0404644 108.917458,94.3925798 109.013761,93.75 C109.159131,92.4224184 109.559818,91.1354667 110.193761,89.96 C111.489124,87.5476527 113.739159,85.791174 116.393761,85.12 C118.910375,84.4799989 121.547146,84.4799989 124.063761,85.12 L123.683761,85.71 C123.245288,85.0349987 122.889409,84.3098132 122.623761,83.55 C122.34069,82.7977321 122.185219,82.0034773 122.163761,81.2 C122.127034,80.3866851 122.328618,79.5803476 122.743761,78.88 C123.154747,78.20679 123.733679,77.6519804 124.423761,77.27 L124.423761,77.27 Z" id="Path" fill="#000000" fill-rule="nonzero"></path>
                <path d="M130.913761,76.21 L117.613761,74.97 C113.228814,74.5220448 108.820645,74.3417106 104.413761,74.43 C103.374021,74.4627632 102.341085,74.6103254 101.333761,74.87 C100.986274,74.9412403 100.666786,75.1114025 100.413761,75.36 L100.413761,75.52 C100.461197,75.6844269 100.535536,75.839863 100.633761,75.98 C101.222025,76.7097234 102.03357,77.2261614 102.943761,77.45 C103.95873,77.7495082 105.000217,77.9504383 106.053761,78.05 C108.240794,78.2554236 110.439638,78.3055493 112.633761,78.2 C114.853761,78.2 117.063761,77.96 119.293761,77.77 C114.949374,78.9792172 110.452552,79.5518462 105.943761,79.47 C104.778613,79.4262139 103.621743,79.2551983 102.493761,78.96 C101.892799,78.8008115 101.312272,78.5726277 100.763761,78.28 C100.159742,77.9576726 99.6392749,77.4988397 99.2437607,76.94 C99.0229918,76.6394013 98.8602098,76.3002722 98.7637607,75.94 C98.6398838,75.4511518 98.7154316,74.9331098 98.9737607,74.5 C99.4312029,73.8834769 100.088723,73.4451301 100.833761,73.26 C101.976897,72.9367977 103.156161,72.7587322 104.343761,72.73 C108.846372,72.6480788 113.347368,72.965993 117.793761,73.68 C122.213761,74.21 126.603761,75.09 130.913761,76.21 L130.913761,76.21 Z" id="Path" fill="#000000" fill-rule="nonzero"></path>
                <path d="M98.9137607,56.79 C98.0297435,56.8024319 97.1476422,56.8759404 96.2737607,57.01 C95.4074588,57.1329723 94.5540054,57.3337849 93.7237607,57.61 C92.9186754,57.8789089 92.1597871,58.270158 91.4737607,58.77 C90.8237211,59.2695452 90.2940458,59.9085728 89.9237607,60.64 L89.5337607,60.03 L91.9837607,60.03 C92.2229137,60.0299382 92.4183254,60.2209087 92.4237607,60.46 C92.4258552,60.5799271 92.3788991,60.6955113 92.2937607,60.78 C91.602548,61.4882386 90.9859738,62.2656583 90.4537607,63.1 C89.922882,63.9350708 89.4804917,64.8232028 89.1337607,65.75 C88.7978158,66.6841322 88.6187311,67.6674086 88.6037607,68.66 C88.5889172,69.6778649 88.7409304,70.6912862 89.0537607,71.66 C88.5729303,70.7261538 88.2807042,69.7067604 88.1937607,68.66 C88.1148931,67.609257 88.2232418,66.5528572 88.5137607,65.54 C88.7971376,64.5243307 89.2176776,63.5520422 89.7637607,62.65 C90.3038565,61.738376 90.9481888,60.8926898 91.6837607,60.13 L91.9937607,60.88 L89.5337607,60.88 C89.4215429,60.8827721 89.313096,60.839413 89.2337218,60.7600388 C89.1543477,60.6806647 89.1109886,60.5722178 89.1137607,60.46 C89.0989436,60.4009148 89.0989436,60.3390852 89.1137607,60.28 C89.5567259,59.4272076 90.1980477,58.6932885 90.9837607,58.14 C91.7580826,57.6315328 92.613794,57.2594844 93.5137607,57.04 C94.3888761,56.8061648 95.2882956,56.6752792 96.1937607,56.65 C97.1028293,56.6035351 98.0142665,56.6504473 98.9137607,56.79 L98.9137607,56.79 Z" id="Path" fill="#000000" fill-rule="nonzero"></path>
                <g id="Clipped" transform="translate(126.913761, 24.210000)">
                    <mask id="mask-2" fill="white">
                        <use xlink:href="#path-1"></use>
                    </mask>
                    <g id="Path"></g>
                    <g id="Group" mask="url(#mask-2)" fill-rule="nonzero">
                        <g transform="translate(-2.000000, 7.000000)">
                            <path d="M0.48,8.81 C0.48,8.81 1.06,15.66 8.1,15.66 C15.14,15.66 15.19,11.11 15.19,11.11 C15.19,11.11 16.06,1.26 7.92,1.26 C7.92,1.26 2.69,0.63 0.48,8.81 Z" id="Path" fill="#87E1C3"></path>
                            <path d="M13.23,10.06 C13.23,13.87 10.66,15.43 7.49,15.43 C4.32,15.43 1.75,13.87 1.75,10.06 C1.75,6.25 4.32,3.16 7.49,3.16 C10.66,3.16 13.23,6.25 13.23,10.06 Z" id="Path" fill="#000000"></path>
                            <ellipse id="Oval" fill="#FFFFFF" transform="translate(6.181982, 5.859141) rotate(-36.930000) translate(-6.181982, -5.859141) " cx="6.1819817" cy="5.85914073" rx="1.89" ry="1.26"></ellipse>
                            <path d="M15.19,11.11 C15.0622476,9.96647609 14.8381173,8.83578884 14.52,7.73 C14.2260429,6.66855414 13.7743384,5.65727553 13.18,4.73 C12.6086357,3.87858396 11.8266039,3.1895691 10.91,2.73 C9.96470746,2.31127014 8.94383319,2.09008072 7.91,2.08 L7.81,2.08 C7.43341875,2.06613507 7.05668817,2.10313539 6.69,2.19 C6.28703848,2.2725974 5.89459327,2.40005824 5.52,2.57 C4.74880355,2.95138247 4.04867007,3.46210786 3.45,4.08 C2.82100812,4.74218801 2.26452039,5.46964486 1.79,6.25 L1.1,7.48 C0.91,7.91 0.69,8.34 0.47,8.78 C0.53,8.3 0.6,7.78 0.69,7.34 C0.78,6.9 0.94,6.34 1.07,5.92 C1.3980524,4.96586041 1.86653639,4.06596671 2.46,3.25 C3.07967767,2.39599454 3.87391805,1.68356432 4.79,1.16 C5.76533431,0.593249054 6.88310873,0.319012471 8.01,0.37 L7.91,0.37 C9.21496871,0.343259228 10.5064052,0.638640971 11.67,1.23 C12.8269853,1.86195458 13.7780454,2.81301472 14.41,3.97 C14.9617445,5.08418268 15.3008746,6.29148611 15.41,7.53 C15.5312279,8.72736897 15.4569248,9.93648399 15.19,11.11 L15.19,11.11 Z" id="Path" fill="#000000"></path>
                            <path d="M0.48,8.81 C0.995616244,10.3804019 1.87639396,11.8060966 3.05,12.97 C4.19209867,13.9989787 5.64631249,14.615171 7.18,14.72 C7.97465144,14.8001364 8.77534856,14.8001364 9.57,14.72 C10.3571895,14.6719736 11.135934,14.530994 11.89,14.3 C13.4554627,13.8455215 14.6924188,12.6423006 15.19,11.09 C15.2950408,12.0116542 15.0681299,12.9405708 14.55,13.71 C14.0118895,14.5004515 13.2780067,15.1378615 12.42,15.56 C10.7233249,16.3290921 8.85352814,16.6361251 7,16.45 C6.5324628,16.3875502 6.06849967,16.3007658 5.61,16.19 C5.15026693,16.0524277 4.70219053,15.8785473 4.27,15.67 C3.41390796,15.2336902 2.65790348,14.624119 2.05,13.88 C0.910834959,12.4459175 0.350645532,10.6368982 0.48,8.81 L0.48,8.81 Z" id="Path" fill="#000000"></path>
                        </g>
                    </g>
                </g>
                <path d="M94.6537607,43.21 C94.6537607,43.21 95.6537607,52.63 107.243761,52.63 C118.833761,52.63 118.963761,46.38 118.963761,46.38 C118.963761,46.38 120.403761,32.84 106.963761,32.84 C106.913761,32.83 98.3037607,31.96 94.6537607,43.21 L94.6537607,43.21 Z" id="Path" fill="#87E1C3" fill-rule="nonzero"></path>
                <path d="M110.833761,52.21 C106.723761,52.47 97.5337607,53.97 94.6537607,43.21 C95.0273006,42.0146279 95.6022308,40.8918231 96.3537607,39.89 C99.0797212,36.8532315 103.395946,35.8118096 107.206785,37.2713743 C111.017624,38.730939 113.533849,42.3892129 113.533761,46.47 C113.644841,48.7133876 112.632727,50.8650668 110.833761,52.21 L110.833761,52.21 Z" id="Path" fill="#000000" fill-rule="nonzero"></path>
                <ellipse id="Oval" fill="#FFFFFF" fill-rule="nonzero" transform="translate(101.327976, 40.794273) rotate(-19.220000) translate(-101.327976, -40.794273) " cx="101.327976" cy="40.794273" rx="3.60000002" ry="2.20000001"></ellipse>
                <path d="M118.963761,46.37 C118.886914,44.6707858 118.584257,42.9893573 118.063761,41.37 C117.580221,39.7948421 116.769157,38.3396969 115.683761,37.1 C114.628473,35.8966394 113.266924,35.0016109 111.743761,34.51 C110.985273,34.2361669 110.201407,34.0385256 109.403761,33.92 C108.603761,33.82 107.773761,33.8 106.953761,33.72 L106.913761,33.72 C105.60168,33.6778003 104.293956,33.8917915 103.063761,34.35 C101.797763,34.8254538 100.61612,35.5006782 99.5637607,36.35 C98.5157646,37.2655971 97.5883394,38.3106306 96.8037607,39.46 C96.3837607,40.03 96.0737607,40.68 95.6737607,41.28 L94.6737607,43.21 C94.8537607,42.51 95.0237607,41.8 95.2337607,41.1 C95.4437607,40.4 95.7437607,39.72 96.0837607,39.1 C96.4093457,38.4323932 96.7906993,37.7934586 97.2237607,37.19 C97.6474789,36.5625454 98.1296285,35.9765997 98.6637607,35.44 C99.7494299,34.3518462 101.036758,33.4857018 102.453761,32.89 C103.904108,32.252671 105.480888,31.9551009 107.063761,32.02 L106.913761,32.02 C107.813761,32.08 108.733761,32.08 109.633761,32.22 C110.541222,32.3752457 111.431888,32.6163282 112.293761,32.94 C114.063901,33.5734458 115.612883,34.7056613 116.753761,36.2 C117.859715,37.6720048 118.600051,39.3857454 118.913761,41.2 C119.240451,42.9063784 119.257388,44.6576224 118.963761,46.37 L118.963761,46.37 Z" id="Path" fill="#000000" fill-rule="nonzero"></path>
                <path d="M94.7437607,43.21 C95.2472648,45.7588893 96.671056,48.0333958 98.7437607,49.6 C100.823918,51.0762406 103.313016,51.8663194 105.863761,51.86 C107.144375,51.8967212 108.425774,51.8231161 109.693761,51.64 C110.323761,51.55 110.953761,51.48 111.563761,51.33 C112.177517,51.2185307 112.785015,51.0750009 113.383761,50.9 C114.565564,50.5877118 115.680482,50.0624464 116.673761,49.35 C117.701692,48.6145013 118.45759,47.5597604 118.823761,46.35 L119.003761,46.35 C119.060395,47.7900076 118.521466,49.1897768 117.513761,50.22 C116.516085,51.2553165 115.290104,52.0429574 113.933761,52.52 C111.295365,53.3529404 108.505393,53.5919833 105.763761,53.22 C102.989136,53.0347073 100.342078,51.9856747 98.1937607,50.22 C96.1323178,48.4070678 94.8232671,45.8888397 94.5237607,43.16 L94.7437607,43.21 Z" id="Path" fill="#000000" fill-rule="nonzero"></path>
                <path d="M83.3437607,69.13 C83.0277699,71.7418958 82.2986759,74.2869738 81.1837607,76.67 C80.6087128,77.8934924 79.8424458,79.0175757 78.9137607,80 C77.9534916,81.0329762 76.72407,81.7775554 75.3637607,82.15 L75.2737607,80.98 C77.0310966,81.0502975 78.7800007,81.2609686 80.5037607,81.61 C81.3839381,81.784668 82.2497178,82.025348 83.0937607,82.33 C84.039263,82.6500536 84.8981962,83.1838926 85.6037607,83.89 C85.7613219,84.0459004 85.8499799,84.258346 85.8499799,84.48 C85.8499799,84.701654 85.7613219,84.9140996 85.6037607,85.07 C85.5756857,85.0957083 85.5455887,85.1191171 85.5137607,85.14 C83.9637607,86.22 82.3937607,87.25 80.8237607,88.3 L80.1737607,86.77 C81.2394268,86.6089637 82.32623,86.6565113 83.3737607,86.91 C84.3883604,87.1391824 85.3603551,87.5273053 86.2537607,88.06 C87.9921404,89.1371029 89.4219009,90.6461031 90.4037607,92.44 C91.3428234,94.1695843 92.0169983,96.0303069 92.4037607,97.96 C92.8102771,99.8482142 93.0445715,101.769429 93.1037607,103.7 C92.7630334,101.841125 92.2986689,100.007052 91.7137607,98.21 C91.1424954,96.4226536 90.3389573,94.718077 89.3237607,93.14 C88.3553002,91.6126126 87.030755,90.3429709 85.4637607,89.44 C84.6891164,89.0246861 83.8565005,88.7280456 82.9937607,88.56 C82.1632695,88.4003022 81.3127089,88.3733003 80.4737607,88.48 C80.2478862,88.5234977 80.0140261,88.4735935 79.8255826,88.341683 C79.637139,88.2097725 79.5102031,88.0071196 79.4737607,87.78 C79.4251939,87.4544433 79.5645184,87.1293528 79.8337607,86.94 C81.3837607,85.87 82.9337607,84.8 84.5037607,83.76 L84.3437607,85.04 C83.820052,84.5338125 83.1920769,84.1481539 82.5037607,83.91 C81.7486345,83.5922383 80.9695331,83.334767 80.1737607,83.14 C78.5294561,82.7032505 76.8595609,82.3692715 75.1737607,82.14 C74.8800517,82.1015173 74.6604092,81.8512193 74.6604092,81.555 C74.6604092,81.2587807 74.8800517,81.0084827 75.1737607,80.97 C76.3545312,80.7160595 77.4395348,80.1336933 78.3037607,79.29 C79.2160419,78.4080925 79.9942944,77.397375 80.6137607,76.29 C81.2552066,75.1750608 81.8005113,74.0075066 82.2437607,72.8 C82.6848592,71.6002212 83.0522108,70.3746026 83.3437607,69.13 L83.3437607,69.13 Z" id="Path" fill="#000000" fill-rule="nonzero"></path>
                <path d="M125.023761,24.03 C126.371628,22.727923 127.884546,21.6083641 129.523761,20.7 C131.192777,19.7424568 133.079669,19.2294151 135.003761,19.21 C136.003457,19.2382156 136.985502,19.4803169 137.883761,19.92 C138.838652,20.3538816 139.652788,21.0467637 140.233761,21.92 C140.80536,22.8922716 140.950099,24.0574256 140.633761,25.14 C140.351097,26.1652858 139.849586,27.1171325 139.163761,27.93 L137.913761,26.69 C138.993761,25.57 139.853761,23.85 139.133761,22.51 C138.733519,21.7914785 138.136914,21.2018106 137.413761,20.81 C136.666872,20.3738829 135.834526,20.1043939 134.973761,20.02 C133.164568,19.9106882 131.358219,20.2760947 129.733761,21.08 C128.038179,21.8469312 126.453876,22.8392229 125.023761,24.03 L125.023761,24.03 Z" id="Path" fill="#000000" fill-rule="nonzero"></path>
                <path d="M156.223761,68.21 C155.122866,69.4463557 153.884908,70.5534723 152.533761,71.51 C151.181495,72.4482636 149.725129,73.2267819 148.193761,73.83 C145.136097,74.9562677 141.890846,75.4858275 138.633761,75.39 C135.429691,75.3137635 132.246592,74.850401 129.153761,74.01 C126.053799,73.2089735 123.039489,72.1070756 120.153761,70.72 C123.070334,71.9651228 126.101332,72.9229853 129.203761,73.58 C132.281328,74.2680948 135.430993,74.5803751 138.583761,74.51 C140.142305,74.4675591 141.694485,74.293608 143.223761,73.99 C144.739145,73.6774538 146.219744,73.2151853 147.643761,72.61 C149.041015,71.9848953 150.362807,71.2032262 151.583761,70.28 C152.778096,69.3322685 153.867627,68.2594991 154.833761,67.08 C154.981661,66.9006177 155.195888,66.7887595 155.427616,66.7699199 C155.659343,66.7510803 155.888826,66.8268645 156.063761,66.98 C156.242207,67.1280311 156.354183,67.3411668 156.374836,67.572099 C156.395488,67.8030311 156.323108,68.0326541 156.173761,68.21 L156.223761,68.21 Z" id="Path" fill="#000000" fill-rule="nonzero"></path>
                <path d="M158.073761,62.28 C159.073761,60.5 159.953761,58.55 159.753761,56.77 C159.553761,54.99 157.893761,53.7 156.093761,52.77 C154.212624,51.8481171 152.267603,51.0627567 150.273761,50.42 L144.273761,48.42 C142.235284,47.7923286 140.232343,47.0545788 138.273761,46.21 C136.289096,45.3420264 134.437372,44.1973245 132.773761,42.81 C131.085836,41.4247055 129.720715,39.6875892 128.773761,37.72 C127.846311,35.7477034 127.499461,33.5521464 127.773761,31.39 C127.889851,30.2830129 128.230094,29.2112484 128.773761,28.24 C129.29488,27.2705236 130.030181,26.4326232 130.923761,25.79 C132.733477,24.6277146 134.867247,24.0741258 137.013761,24.21 C134.845478,24.112638 132.704382,24.7233768 130.913761,25.95 C129.212544,27.2793238 128.16376,29.2749269 128.033761,31.43 C127.843038,33.5199878 128.248722,35.6212236 129.203761,37.49 C130.15585,39.3495888 131.50011,40.9804423 133.143761,42.27 C134.792253,43.5605952 136.613246,44.6141454 138.553761,45.4 C140.516327,46.1741137 142.519239,46.8417512 144.553761,47.4 L150.663761,49.24 C152.734055,49.8509034 154.759012,50.6060851 156.723761,51.5 C157.759145,51.9697173 158.719501,52.5897367 159.573761,53.34 C160.505191,54.1632492 161.123431,55.2831463 161.323761,56.51 C161.469553,57.6936483 161.339495,58.8949786 160.943761,60.02 C160.587742,61.0742127 160.146277,62.0976099 159.623761,63.08 C159.498501,63.3884798 159.209872,63.5998547 158.877973,63.6261716 C158.546074,63.6524885 158.22774,63.4892407 158.055432,63.2043556 C157.883123,62.9194705 157.886347,62.5617339 158.063761,62.28 L158.073761,62.28 Z" id="Path" fill="#000000" fill-rule="nonzero"></path>
                <path d="M157.513761,51.52 C152.650172,50.0629735 147.379021,51.3654382 143.753761,54.92 C140.753761,57.83 140.963761,63.51 144.283761,66.65 C146.793761,69.03 150.573761,70.73 156.023761,69.04 C161.473761,67.35 163.023761,63.4 163.163761,59.9 C163.353761,56.04 160.853761,52.38 157.513761,51.52 Z" id="Path" fill="#000000" fill-rule="nonzero"></path>
                <path d="M161.073761,59.34 C161.00193,58.4605284 160.651643,57.6268451 160.073761,56.96 C160.073761,57.14 160.153761,57.34 160.183761,57.54 C160.403761,59.2 159.863761,60.64 158.963761,60.76 C158.587134,60.7844727 158.219613,60.6374644 157.963761,60.36 C158.293761,61.72 159.093761,62.67 159.883761,62.56 C160.673761,62.45 161.293761,61 161.073761,59.34 L161.073761,59.34 Z" id="Path" fill="#D1CCBD" fill-rule="nonzero" opacity="0.2"></path>
                <path d="M151.533761,60.87 C151.438692,60.0447339 151.143469,59.2551832 150.673761,58.57 C150.873761,60.37 150.273761,61.9 149.283761,62.04 C148.686439,62.0539023 148.131138,61.7338325 147.843761,61.21 C147.838789,61.2632175 147.838789,61.3167825 147.843761,61.37 C148.093761,63.23 149.123761,64.63 150.133761,64.49 C151.143761,64.35 151.783761,62.73 151.533761,60.87 L151.533761,60.87 Z" id="Path" fill="#D1CCBD" fill-rule="nonzero" opacity="0.2"></path>
                <ellipse id="Oval" fill="#F2F1ED" fill-rule="nonzero" cx="66.9237607" cy="63.53" rx="15.65" ry="16.44"></ellipse>
                <path d="M53.7637607,69.3 C57.6537607,84.21 79.3137607,82.94 81.0537607,67.61 C81.0537607,67.61 76.7237607,65.25 72.7137607,67.2 C72.7137607,67.2 73.0537607,63.32 75.1837607,61.33 C73.2698129,60.8516709 71.2503328,61.0349396 69.4537607,61.85 C69.4537607,61.85 69.0337607,58.48 74.7137607,56.33 C70.9291321,54.6439733 66.65413,54.4195357 62.7137607,55.7 C52.2137607,58.84 53.7637607,69.3 53.7637607,69.3 Z" id="Path" fill="#000000" fill-rule="nonzero"></path>
                <path d="M70.1237607,48.21 C68.6498472,48.0201777 67.1576741,48.0201777 65.6837607,48.21 C64.2489159,48.4311505 62.8520522,48.8518926 61.5337607,49.46 C56.2576635,52.129721 52.7228252,57.322459 52.1737607,63.21 C52.1092627,64.7000701 52.2574184,66.1917289 52.6137607,67.64 C53.7523953,71.9318401 56.6605634,75.5379685 60.6137607,77.56 C61.8745103,78.1869403 63.2232575,78.6185394 64.6137607,78.84 C67.4317237,79.2484866 70.3070239,78.7733458 72.8437607,77.48 C74.1158698,76.8172749 75.293085,75.9864973 76.3437607,75.01 C78.476445,72.9489864 80.0609976,70.3882669 80.9537607,67.56 L81.1237607,67.56 C80.7251386,70.6660226 79.405046,73.5813721 77.3337607,75.93 C76.2706719,77.1153964 75.0290591,78.1275808 73.6537607,78.93 C72.2458547,79.7165886 70.7244229,80.2799569 69.1437607,80.6 C67.5484409,80.8700424 65.9190804,80.8700424 64.3237607,80.6 C62.7415297,80.3001268 61.2162556,79.7534578 59.8037607,78.98 C57.0441001,77.4388675 54.8372209,75.0711065 53.4937607,72.21 C52.1876314,69.3927332 51.5412409,66.3146831 51.6037607,63.21 C51.6156231,62.4406785 51.6723863,61.6727054 51.7737607,60.91 C52.0152051,58.5714317 52.7442167,56.3094518 53.9137607,54.27 C55.5361121,51.5082124 58.0352455,49.3681095 61.0137607,48.19 C62.4894902,47.618917 64.0520074,47.3043844 65.6337607,47.2599892 C67.184717,47.2580334 68.7242414,47.5253355 70.1837607,48.05 L70.1237607,48.21 Z" id="Path" fill="#000000" fill-rule="nonzero"></path>
                <path d="M118.913761,24.21 C117.213115,23.0617181 115.35335,22.1688963 113.393761,21.56 C111.466058,20.9224983 109.484656,20.4606176 107.473761,20.18 C105.466886,19.8885679 103.441685,19.7415236 101.413761,19.74 C100.412493,19.720795 99.4109335,19.7575189 98.4137607,19.85 C97.9255217,19.8916689 97.4409286,19.9685354 96.9637607,20.08 C96.4762808,20.1543452 95.9949677,20.2646461 95.5237607,20.41 C91.6950807,21.5007399 88.3144066,23.7848845 85.8737607,26.93 C84.604082,28.4927895 83.5728916,30.2350294 82.8137607,32.1 C81.9864612,33.991273 81.5673404,36.0357644 81.5837607,38.1 C81.2383178,36.0188828 81.382113,33.8859201 82.0037607,31.87 C83.2407387,27.7472707 85.7810911,24.1367422 89.2437607,21.58 C89.6745973,21.2532799 90.1291902,20.9591315 90.6037607,20.7 C91.0549457,20.3985911 91.533767,20.1407642 92.0337607,19.93 C92.5237607,19.71 93.0337607,19.46 93.5137607,19.27 L95.0637607,18.77 C95.5821883,18.6212892 96.1100519,18.5076983 96.6437607,18.43 C97.171489,18.3184186 97.7059706,18.2415869 98.2437607,18.2 C99.3074946,18.102157 100.376766,18.0787667 101.443761,18.13 C103.548764,18.1981324 105.643606,18.4524582 107.703761,18.89 C109.770197,19.3048036 111.783019,19.9522614 113.703761,20.82 C115.622347,21.6421807 117.384825,22.7889758 118.913761,24.21 L118.913761,24.21 Z" id="Path" fill="#000000" fill-rule="nonzero"></path>
                <path d="M117.343761,-1.13686838e-13 C116.153818,0.785442111 115.0087,1.6367694 113.913761,2.55 C112.823226,3.32607232 112.068851,4.4880239 111.803761,5.8 C111.803761,7.01 112.713761,8.06 113.803761,8.89 C114.913744,9.72094833 116.10677,10.4347531 117.363761,11.02 C118.630493,11.649874 119.928886,12.2139575 121.253761,12.71 C122.617367,13.2290674 123.952565,13.8198926 125.253761,14.48 C126.523417,15.1497817 127.746219,15.9048453 128.913761,16.74 C130.132031,17.5721574 131.217611,18.5835669 132.133761,19.74 C129.593761,18.34 127.003761,17.25 124.433761,16.04 L120.543761,14.21 C119.253761,13.59 117.893761,13.02 116.613761,12.31 C115.295779,11.6250559 114.055309,10.8003107 112.913761,9.85 C112.320586,9.34681258 111.810928,8.75277396 111.403761,8.09 C110.955093,7.38155384 110.751333,6.54543579 110.823761,5.71 C110.949459,4.91987288 111.296144,4.18143301 111.823761,3.58 C112.327687,3.03233418 112.891177,2.54263502 113.503761,2.12 C114.726798,1.31474065 116.010678,0.605931884 117.343761,-1.13686838e-13 L117.343761,-1.13686838e-13 Z" id="Path" fill="#000000" fill-rule="nonzero"></path>
                <path d="M60.8137607,48.92 C60.2337607,47.69 59.6037607,46.49 58.9537607,45.31 C58.3037607,44.13 57.5937607,42.98 56.8537607,41.86 C56.1204154,40.7524876 55.3118448,39.6966682 54.4337607,38.7 C53.5862492,37.7213393 52.6147231,36.8573871 51.5437607,36.13 C51.2223967,35.903285 51.1307423,35.4668353 51.3337607,35.13 C51.4008501,35.0274419 51.4940442,34.9446027 51.6037607,34.89 C52.4081112,34.4561917 53.1801153,33.9649164 53.9137607,33.42 C54.6485466,32.9237379 55.3469866,32.3756797 56.0037607,31.78 C57.3256564,30.664844 58.4220258,29.3071109 59.2337607,27.78 C59.9976537,26.2601316 60.2367651,24.53009 59.9137607,22.86 C59.4919836,21.1039106 58.7458515,19.442071 57.7137607,17.96 C59.1624698,19.1969398 60.2651243,20.7888973 60.9137607,22.58 C61.5478978,24.504191 61.4481703,26.594905 60.6337607,28.45 C59.8092403,30.2408364 58.5966104,31.8257949 57.0837607,33.09 C55.6278075,34.3456694 54.001735,35.3893184 52.2537607,36.19 L52.3537607,34.89 C53.4908457,35.7428137 54.5009469,36.752915 55.3537607,37.89 C56.204486,38.9858533 56.9637082,40.149771 57.6237607,41.37 C58.2799396,42.5705696 58.8708,43.8057016 59.3937607,45.07 C59.939709,46.3253714 60.4138081,47.6107808 60.8137607,48.92 L60.8137607,48.92 Z" id="Path" fill="#000000" fill-rule="nonzero"></path>
                <path d="M58.0437607,16.77 C59.906256,16.8297242 61.7703593,16.7226303 63.6137607,16.45 C65.4020444,16.2136265 67.1349852,15.6653132 68.7337607,14.83 C70.2434477,14.0544675 71.432691,12.7731995 72.0937607,11.21 C72.6876543,9.58310515 72.8730806,7.83529078 72.6337607,6.12 C72.5933356,5.64258923 72.9465167,5.22234849 73.4237607,5.18 C73.5261541,5.16028982 73.6313672,5.16028982 73.7337607,5.18 C75.374781,5.6307372 77.0456122,5.96490343 78.7337607,6.18 C80.4143213,6.40625357 82.1149684,6.44315124 83.8037607,6.29 C85.4641496,6.17945612 87.0591658,5.60039591 88.4037607,4.62 C89.7083858,3.49770868 90.5465373,1.92840361 90.7537607,0.22 C90.8539389,2.06577215 90.188241,3.87111596 88.9137607,5.21 C87.5305148,6.49544489 85.784513,7.32304973 83.9137607,7.58 C82.1205889,7.88770068 80.2940539,7.95161259 78.4837607,7.77 C76.6816162,7.62396887 74.8971372,7.30925774 73.1537607,6.83 L74.2537607,5.91 C74.5668647,7.93567128 74.3285145,10.0082824 73.5637607,11.91 C72.7197363,13.8139747 71.1977354,15.3359756 69.2937607,16.18 C67.5051521,16.9786522 65.5724055,17.4039925 63.6137607,17.43 C61.7359345,17.4600572 59.8625619,17.2380777 58.0437607,16.77 L58.0437607,16.77 Z" id="Path" fill="#000000" fill-rule="nonzero"></path>
                <path d="M91.4837607,1.34 C91.5307856,2.41841891 91.9761845,3.44105462 92.7337607,4.21 C92.9082335,4.38064653 93.0954408,4.53776693 93.2937607,4.68 L93.9437607,5.01 C94.1737607,5.1 94.4237607,5.15 94.6537607,5.22 C94.8865654,5.31191732 95.1335745,5.36267261 95.3837607,5.37 C96.4063746,5.47286024 97.4378918,5.44598031 98.4537607,5.29 C98.9737607,5.19 99.4537607,5.12 100.013761,5.04 C100.573761,4.96 101.013761,4.77 101.573761,4.64 C102.62606,4.39692302 103.664277,4.09647432 104.683761,3.74 C105.683761,3.46 106.683761,3.04 107.773761,2.74 C109.863761,2.07 111.893761,1.21 114.053761,0.6 C112.23769,1.89832372 110.31403,3.03913774 108.303761,4.01 C107.301531,4.47009114 106.273085,4.87078422 105.223761,5.21 C104.173965,5.61487321 103.098223,5.94895472 102.003761,6.21 C99.7684804,6.89626712 97.3983207,7.01992763 95.1037607,6.57 C94.8049125,6.51935214 94.5151426,6.42500846 94.2437607,6.29 C93.9597486,6.17624366 93.6826115,6.04602264 93.4137607,5.9 L92.6737607,5.33 C92.4519533,5.11343202 92.2479597,4.87934098 92.0637607,4.63 C91.4260932,3.65980732 91.2162975,2.46975978 91.4837607,1.34 L91.4837607,1.34 Z" id="Path" fill="#000000" fill-rule="nonzero"></path>
                <path d="M84.3537607,42.89 L85.1237607,48.07 L88.3837607,47.3 L88.9637607,50.57 L92.8037607,49.8 L93.5737607,53.07 L97.8037607,52.3 L98.1837607,54.8 L101.833761,54.22 L102.413761,56.34 L119.323761,52.49 L119.323761,49.61 L122.973761,48.46 L122.973761,45.58 L126.243761,44.23 L126.243761,40 L130.383761,39.32 C130.383761,39.32 136.073761,45.04 140.453761,46.32 L149.453761,43.83 L149.453761,41.71 L152.143761,40.71 L152.143761,38.21 L154.443761,37.21 L154.443761,34.52 L157.133761,33.37 L157.133761,31.21 L159.633761,30.45 L159.633761,27.95 L84.3537607,42.89 Z" id="Path" fill="#000000" fill-rule="nonzero"></path>
                <polygon id="Path" fill="#000000" fill-rule="nonzero" points="84.3537607 42.88 69.9437607 48.22 72.9737607 50.14 85.1237607 48.07"></polygon>
                <polygon id="Path" fill="#FFFFFF" fill-rule="nonzero" points="122.873761 39.24 123.023761 41.83 116.683761 42.69 117.113761 48.17 113.653761 48.75 113.513761 45.72 120.713761 44.71 119.853761 39.24"></polygon>
                <polygon id="Path" fill="#FFFFFF" fill-rule="nonzero" points="152.453761 31.88 152.563761 34.48 147.663761 35.34 147.993761 40.82 145.323761 41.4 145.213761 38.37 150.783761 37.36 150.113761 31.88"></polygon>
            </g>
        </g>
    </g>
</svg>