<svg fill="none" height="180" viewBox="0 0 504 180" width="504" xmlns="http://www.w3.org/2000/svg"><g fill="#000"><path d="m288 72h36v36h-36z"/><path d="m252 108h36v36h-36z"/><path d="m216 144h36v36h-36z"/><path d="m180 72h36v36h-36z"/><path d="m252 0h36v36h-36z"/><path d="m216 36h36v36h-36z"/><path d="m180 72h36v36h-36z"/></g><path d="m144 108h36v36h-36z" fill="#1F2937"/><path d="m144 0h36v36h-36z" fill="#000"/><path d="m252 108h36v36h-36z" fill="#1F2937"/><g fill="#000"><path d="m252 72h36v36h-36z"/><path d="m216 108h36v36h-36z"/><path d="m180 144h36v36h-36z"/><path d="m144 72h36v36h-36z"/><path d="m252 144h36v36h-36z"/><path d="m144 144h36v36h-36z"/><path d="m468 72h36v36h-36z"/></g><path d="m432 108h36v36h-36z" fill="#1F2937"/><g fill="#000"><path d="m432 0h36v72h-36z"/><path d="m396 36h36v36h-36z"/><path d="m360 72h36v36h-36z"/></g><path d="m324 108h36v36h-36z" fill="#1F2937"/><path d="m288 144h36v36h-36z" fill="#1F2937"/><path d="m288 36h36v36h-36z" fill="#000"/><path d="m396 144h36v36h-36z" fill="#000"/><path d="m468 144h36v36h-36z" fill="#1F2937"/><g fill="#000"><path d="m396 108h36v72h-36z"/><path d="m180 36h36v36h-36z"/><path d="m144 72h36v36h-36z"/><path d="m108 108h36v36h-36z"/><path d="m72 144h36v36h-36z"/><path d="m180 108h36v72h-36z"/><path d="m72 36h36v72h-36z"/><path d="m108 72h36v36h-36z"/><path d="m72 108h36v36h-36z"/><path d="m36 144h36v36h-36z"/><path d="m0 72h36v36h-36z"/><path d="m144 144h36v36h-36z"/><path d="m360 144h36v36h-36z"/><path d="m252 144h36v36h-36z"/></g></svg>