<?xml version="1.0" encoding="UTF-8"?>
<!-- Generator: Adobe Illustrator 24.3.0, SVG Export Plug-In . SVG Version: 6.00 Build 0)  -->
<svg version="1.1" id="Layer_1" xmlns="http://www.w3.org/2000/svg" xmlns:xlink="http://www.w3.org/1999/xlink" x="0px" y="0px" viewBox="0 0 215 270" style="enable-background:new 0 0 215 270;" xml:space="preserve">
<style type="text/css">
	.st0{fill:#F2F2F2;}
	.st1{fill:#FFFFFF;}
</style>
<path class="st0" d="M107.5,270c41.7,0,75.5-8.5,75.5-19s-33.8-19-75.5-19c-41.7,0-75.5,8.5-75.5,19C32,261.5,65.8,270,107.5,270z"/>
<path d="M107.5,215c59.4,0,107.5-48.1,107.5-107.5C215,48.1,166.9,0,107.5,0C48.1,0,0,48.1,0,107.5C0,166.9,48.1,215,107.5,215z"/>
<path class="st1" d="M140,59.2l-22.5,33.4c-1.6,2.3,1.4,5,3.5,3.1l22.1-19.2c0.6-0.5,1.5-0.1,1.5,0.7v60.1c0,0.8-1,1.2-1.6,0.6  l-66.8-80c-2.2-2.6-5.4-4.1-8.7-4.1h-2.3c-6.3,0-11.5,5.1-11.5,11.5v84.6c0,6.3,5.1,11.5,11.5,11.5h0c4,0,7.7-2.1,9.8-5.5l22.5-33.4  c1.6-2.3-1.4-5-3.5-3.1l-22.1,19.2c-0.6,0.5-1.5,0.1-1.5-0.7V77.7c0-0.8,1-1.2,1.6-0.6l66.8,80c2.2,2.6,5.4,4.1,8.7,4.1h2.3  c6.3,0,11.5-5.1,11.5-11.5V65.2c0-6.3-5.1-11.5-11.5-11.5h0C145.8,53.8,142.1,55.8,140,59.2z"/>
</svg>